<?xml version="1.0" encoding="UTF-8" standalone="no"?>
<!-- Created with Inkscape (http://www.inkscape.org/) -->

<svg
   version="1.1"
   id="svg1"
   width="501.26175"
   height="435.54361"
   viewBox="0 0 501.26175 435.54361"
   sodipodi:docname="energytool_logo.svg"
   xml:space="preserve"
   inkscape:version="1.3 (0e150ed6c4, 2023-07-21)"
   xmlns:inkscape="http://www.inkscape.org/namespaces/inkscape"
   xmlns:sodipodi="http://sodipodi.sourceforge.net/DTD/sodipodi-0.dtd"
   xmlns="http://www.w3.org/2000/svg"
   xmlns:svg="http://www.w3.org/2000/svg"><defs
     id="defs1" /><sodipodi:namedview
     id="namedview1"
     pagecolor="#505050"
     bordercolor="#eeeeee"
     borderopacity="1"
     inkscape:showpageshadow="0"
     inkscape:pageopacity="0"
     inkscape:pagecheckerboard="0"
     inkscape:deskcolor="#505050"
     inkscape:zoom="2.039121"
     inkscape:cx="281.98425"
     inkscape:cy="219.70251"
     inkscape:window-width="2880"
     inkscape:window-height="1526"
     inkscape:window-x="-11"
     inkscape:window-y="49"
     inkscape:window-maximized="1"
     inkscape:current-layer="g1" /><g
     inkscape:groupmode="layer"
     inkscape:label="Image"
     id="g1"><path
       style="fill:#000000"
       d="m 739.9599,-96.149796 c -13.85594,-2.2333 -21.57292,-4.477994 -34.73855,-10.104664 -20.62075,-8.8128 -35.71223,-19.82387 -50.36245,-36.74553 -16.69014,-19.27785 -26.91998,-38.48858 -32.75346,-61.50807 -0.91428,-3.60784 -1.66233,-7.97133 -1.66233,-9.69664 0,-1.72531 -0.26913,-3.41237 -0.59806,-3.74901 -0.90955,-0.9309 -1.98037,-12.20005 -1.96893,-20.72092 0.0129,-9.60997 1.08815,-22.80427 1.92673,-23.64285 0.35214,-0.35214 0.64026,-2.15046 0.64026,-3.99626 0,-4.63729 3.73686,-19.0131 7.32342,-28.17344 5.50321,-14.05558 12.50672,-26.14658 22.09655,-38.14789 2.42304,-3.03235 4.99203,-6.29586 5.70887,-7.25224 1.58744,-2.11794 12.30268,-12.36262 16.73693,-16.00195 12.35049,-10.13641 34.33976,-20.36081 51.54364,-23.96635 15.79386,-3.31003 30.63324,-4.06761 46.48152,-2.37297 12.4756,1.33401 16.79502,2.32991 31.34082,7.22603 l 12.74851,4.29116 7.86894,-0.6895 c 4.32791,-0.37923 11.34813,-1.50975 15.60048,-2.51226 7.43178,-1.75209 8.38102,-1.82349 24.48322,-1.84172 15.23666,-0.0172 17.35826,0.11684 23.45874,1.48255 8.73867,1.95634 15.09128,4.34505 17.47353,6.57041 1.9082,1.78253 1.91337,1.80746 1.91337,9.2353 0,6.65819 -0.13888,7.57732 -1.30967,8.66808 -0.92104,0.85808 -1.79115,3.4934 -2.93228,8.88107 -1.5867,7.49129 -3.16446,11.49522 -4.45604,11.30822 -0.37903,-0.0549 -0.71854,-3.40994 -0.82462,-8.14908 -0.0992,-4.43068 -0.42788,-8.05579 -0.73045,-8.05579 -0.30258,0 -3.26572,1.12074 -6.58478,2.49053 -3.31906,1.36979 -8.35411,3.25889 -11.18901,4.19799 -6.90664,2.28792 -7.10429,2.43932 -5.32233,4.0768 4.72782,4.34451 10.54903,8.41376 15.61211,10.91347 3.17885,1.56943 7.03625,3.83247 8.57201,5.02897 2.50084,1.94839 3.00717,2.10861 4.85115,1.53511 1.13238,-0.35219 2.49377,-0.68983 3.02532,-0.75033 1.20508,-0.13715 1.64312,2.85589 0.68105,4.65354 -0.48986,0.91531 -0.48224,1.73299 0.0266,2.84969 0.94852,2.08178 -0.20809,4.30624 -2.23904,4.30624 -1.16938,0 -1.64664,0.53589 -2.23947,2.51458 -0.41436,1.38302 -1.26641,3.14814 -1.89345,3.92249 -1.11369,1.37536 -1.17346,1.38054 -2.5851,0.22368 -1.36613,-1.11956 -1.40628,-1.39187 -0.73517,-4.98577 1.02959,-5.51361 -0.2972,-8.78191 -4.33575,-10.68025 -6.19581,-2.91238 -9.11248,-3.75279 -15.3867,-4.43354 -5.17857,-0.56187 -9.60627,-1.73796 -22.06138,-5.85992 -8.57038,-2.83634 -16.96227,-5.8469 -18.64864,-6.69014 -3.62983,-1.81504 -15.6299,-2.98703 -15.6299,-1.5265 0,0.4395 3.19898,3.98341 7.10883,7.87535 13.20134,13.14086 19.00314,28.03441 20.2393,44.60918 0.67756,9.0848 0.42397,10.87612 -1.20803,17.31082 -1.94346,7.66276 -5.02141,14.51351 -7.30226,18.49895 l -4.06781,5.32164 c -4.77292,5.10621 -13.46392,10.20976 -23.46801,13.78094 l -9.47672,1.33435 -43.25318,0.93837 -46.93123,0.20276 -2.98173,1.84346 c -1.63994,1.0139 -3.8594,3.09224 -4.93212,4.61854 -1.68915,2.40337 -1.981,3.44894 -2.17886,7.80595 -0.22613,4.97949 -0.19424,5.09752 3.12347,11.55641 6.23017,12.12885 16.80923,20.71087 34.14715,27.70108 l 3.54362,1.4287 13.20805,-5.90148 c 7.26443,-3.24582 18.42685,-8.018 24.80537,-10.60486 6.37853,-2.58686 19.28054,-7.88448 28.67114,-11.77249 9.39061,-3.888 17.58121,-7.24199 18.20135,-7.4533 0.62013,-0.21131 1.12751,-0.83646 1.12751,-1.38923 0,-1.923 3.98492,-8.88242 6.8239,-11.91752 8.72453,-9.32723 26.9757,-11.94675 38.04587,-5.46057 2.76953,1.62271 6.84932,6.98651 6.5329,8.58896 -0.22319,1.1303 -0.27757,1.16025 -10.16777,5.59893 -11.81442,5.30226 -12.24169,5.52294 -12.24067,6.32216 5.1e-4,0.40258 1.2538,3.92122 2.78508,7.81921 2.57016,6.54252 2.91033,7.0788 4.4258,6.97736 0.90291,-0.0604 6.3414,-1.87252 12.08555,-4.02685 5.74414,-2.15432 10.99491,-3.91696 11.66837,-3.91696 1.88843,0 2.22195,2.82693 0.96336,8.16558 -2.33507,9.90483 -8.41451,18.02281 -16.27072,21.72658 -3.72721,1.75717 -4.03355,2.07466 -5.28413,5.47651 -3.68778,10.03153 -17.91176,26.95587 -32.61493,38.80675 -14.84987,11.96911 -33.7784,20.59307 -54.43046,24.798864 -10.27733,2.09298 -30.3532,2.70783 -39.62416,1.21353 z m -17.75873,-23.954804 7.68831,-3.01531 1.93719,-4.23301 c 3.9355,-8.59959 4.1762,-13.35584 1.00401,-19.83956 -2.84715,-5.81937 -6.94726,-9.4827 -12.50151,-11.16976 -2.87568,-0.87346 -5.52793,-1.28073 -6.99688,-1.07442 -3.54197,0.49746 -9.54435,2.93441 -11.70436,4.75194 -2.16658,1.82306 -8.44385,14.27911 -8.51846,16.90329 -0.031,1.09127 1.83069,4.55908 5.23088,9.74355 l 5.27906,8.04926 3.99575,1.42686 c 2.19766,0.78477 4.64868,1.43712 5.44672,1.44966 0.79804,0.0125 4.91071,-1.33408 9.13929,-2.9925 z m -12.97833,-2.62227 c -0.53738,-0.62013 -2.00484,-2.75783 -3.26102,-4.75044 -1.25619,-1.99261 -3.47086,-4.72107 -4.92148,-6.06323 -2.59412,-2.40017 -3.31376,-4.31648 -1.93987,-5.16559 1.00197,-0.61925 3.13152,-5.8205 4.07533,-9.95363 l 0.80919,-3.54362 h 4.1351 c 3.13194,0 4.73019,-0.35169 6.58805,-1.44966 1.34911,-0.79732 2.97422,-1.44967 3.61134,-1.44967 0.67742,0 2.24458,1.53826 3.7743,3.7047 1.43874,2.03758 3.75007,4.80183 5.13631,6.14278 2.25753,2.18378 2.50784,2.73997 2.39984,5.33248 -0.0663,1.59193 -0.57664,3.97399 -1.13406,5.29347 -0.55741,1.31948 -1.19345,3.49941 -1.41341,4.84429 -0.4405,2.69327 -1.24773,3.20914 -6.14606,3.92774 -1.60387,0.2353 -4.21326,1.28834 -5.79866,2.34009 -3.32023,2.20265 -4.54878,2.3668 -5.9149,0.79029 z m 38.1966,-19.09727 c 5.78487,-2.32885 11.32595,-4.63684 37.31898,-15.54428 9.03624,-3.79188 20.19866,-8.42931 24.80537,-10.30541 10.54892,-4.29609 22.4406,-9.33256 22.73841,-9.63037 0.1249,-0.12491 -0.52388,-1.41673 -1.44175,-2.87071 -2.73107,-4.3263 -4.27724,-9.00644 -4.4155,-13.36539 -0.0712,-2.24505 -0.30201,-4.0828 -0.51287,-4.0839 -0.50098,-0.003 -21.03899,8.36124 -26.03272,10.6015 -2.12617,0.95383 -6.7651,2.88772 -10.30872,4.29754 -11.22629,4.46633 -55.09251,23.61874 -55.9884,24.44507 -0.33092,0.30522 0.29075,1.52465 1.45086,2.84594 2.59443,2.95489 5.023,7.74611 5.57462,10.9979 0.49249,2.90325 0.9731,4.79663 1.21755,4.79663 0.0923,0 2.60966,-0.98303 5.59417,-2.18452 z m 5.42637,-11.48752 c -2.74273,-1.52074 -3.00307,-4.02467 -0.70272,-6.75848 1.59296,-1.89312 3.74839,-3.00301 13.26647,-6.83126 12.77713,-5.13907 24.66898,-10.16391 31.97507,-13.51092 9.92703,-4.54769 11.71325,-5.04997 14.21629,-3.99752 3.29064,1.38361 3.7033,4.42641 1.00328,7.39769 -1.75106,1.92696 -9.46182,5.381 -23.80791,10.66476 -3.26079,1.20097 -7.89972,3.09433 -10.30872,4.20747 -7.44897,3.44196 -20.17275,8.57149 -22.74244,9.16851 -0.8859,0.20582 -2.1906,0.0527 -2.89932,-0.34025 z m 116.07166,-18.42983 c 2.1334,-1.07694 4.79824,-3.00512 5.92185,-4.28485 1.96794,-2.24136 5.2607,-8.16287 6.16946,-11.09481 l 0.4384,-1.41442 -4.05908,1.63697 c -4.64629,1.87379 -17.17809,6.49411 -18.4208,6.79152 -0.87019,0.20826 -2.20347,-2.82542 -7.93964,-18.0654 -1.78031,-4.72999 -3.08414,-8.75278 -2.89738,-8.93953 0.18676,-0.18676 2.59865,-1.28087 5.35976,-2.43135 2.76111,-1.15049 7.62959,-3.3257 10.81885,-4.83381 l 5.79866,-2.74201 -2.72828,-1.22656 c -15.48511,-6.96167 -32.72349,1.65427 -34.95947,17.47315 -1.20237,8.50636 1.72776,17.03275 8.06694,23.47403 5.87877,5.97344 11.53395,8.22801 19.67691,7.84465 3.85285,-0.18139 5.68814,-0.64003 8.75382,-2.18758 z m -173.80372,-47.6582 c 1.6157,-3.16702 6.17825,-7.34749 10.29681,-9.43452 l 3.25818,-1.65105 h 44.85367 c 51.01846,0 49.57341,0.13046 61.13616,-5.51933 12.49141,-6.10355 19.3649,-14.51048 23.93529,-29.2751 1.39597,-4.50966 1.68751,-6.67269 1.65491,-12.27808 -0.0218,-3.74223 -0.30779,-7.95752 -0.61646,-9.37156 -1.60606,-7.35748 -1.41367,-5.45835 -2.33219,-8.77336 -0.66079,-3.31797 -6.32725,-13.62231 -7.91661,-14.3962 -1.20719,-0.5878 -24.02762,-29.90762 -24.02762,-30.87082 0,-0.18389 2.59229,-0.33433 5.76064,-0.33433 3.16834,0 5.91847,-0.2554 6.11139,-0.56755 0.19292,-0.31215 -0.5148,-1.65671 -1.57271,-2.98792 -1.87567,-2.36022 -1.92348,-2.59912 -1.92348,-9.61232 0,-4.67839 0.26646,-7.4584 0.76242,-7.95436 0.41933,-0.41932 0.5862,-0.93863 0.37083,-1.154 -0.21537,-0.21537 -6.18179,-0.37246 -13.25869,-0.34909 -11.42539,0.0377 -13.27188,0.19394 -16.47956,1.39409 -7.09488,2.65453 -13.95681,10.10191 -16.16784,17.54722 -1.87886,6.32684 -0.99085,15.41583 2.09104,21.40205 0.72975,1.41745 7.51491,8.92331 15.07813,16.67969 7.56323,7.75639 16.40058,15.78156 17.50094,18.98251 1.56586,4.5551 1.42901,3.84778 1.72689,8.08052 0.30773,4.37263 -4.25835,10.04149 -9.33759,12.40677 l -3.22617,1.50235 -45.77067,0.006 c -38.92952,0.005 -46.33461,0.15318 -49.5437,0.98904 -4.38354,1.14177 -12.70548,5.32039 -15.68956,7.87806 l -2.06517,1.77007 0.91182,6.7651 c 1.23096,9.13286 6.04548,25.95059 10.05234,35.11409 l 1.40864,3.22148 0.88517,-3.38212 c 0.48684,-1.86016 1.44659,-4.48259 2.13277,-5.82762 z m -8.95251,-48.38934 c 7.75966,-4.04005 11.16821,-4.7193 25.36398,-5.05451 8.09686,-0.1912 13.30518,-0.0584 14.17449,0.36133 20.64413,1.49677 41.42458,1.72923 61.97498,0.12205 3.10067,-0.25198 5.64032,-1.07818 6.27942,-1.41217 1.71322,-0.89531 3.66513,-4.43251 3.6673,-6.64581 0.005,-5.38953 -7.29217,-15.0295 -16.93287,-22.36834 -6.849,-5.2137 -10.98557,-9.55258 -14.30132,-15.00079 l -2.74481,-4.51006 -11.19696,0.0586 c -9.18844,0.0481 -12.22399,0.3108 -16.92238,1.46433 -17.96102,4.40972 -32.63835,14.62798 -44.13562,30.72695 -4.39049,6.14775 -8.89495,15.03932 -9.36508,18.48617 -0.15725,1.15286 -0.49407,3.07723 -0.74849,4.27637 -0.26322,1.24059 -0.21218,2.07164 0.11843,1.92826 0.31955,-0.1386 2.46558,-1.23319 4.76893,-2.43242 z m 176.403,-73.89108 c 6.10663,-1.2547 12.30571,-3.42081 25.26143,-8.82699 14.65301,-6.11442 14.81879,-6.19511 14.81879,-7.2127 0,-1.43029 -3.78566,-5.42487 -6.38195,-6.73414 -6.43417,-3.24465 -21.28205,-5.37595 -35.41393,-5.0834 -10.35189,0.2143 -10.82875,0.28383 -14.10221,2.05633 -1.86342,1.00899 -3.51874,2.04603 -3.6785,2.30452 -0.15976,0.25849 0.91135,1.14545 2.38023,1.97101 1.87504,1.05383 4.31461,1.65119 8.18857,2.0051 3.03482,0.27725 6.09773,0.66282 6.80645,0.85683 0.95246,0.26073 1.62473,-0.17915 2.57718,-1.68627 2.06722,-3.27107 4.42085,-4.64954 7.93876,-4.64954 8.80029,0 12.48142,10.82042 5.53896,16.28136 -5.00998,3.94085 -13.17106,1.35625 -14.3835,-4.55522 l -0.4381,-2.13605 -3.83812,0.22035 c -2.11097,0.1212 -4.76868,0.65605 -5.90601,1.18856 -2.58601,1.21078 -6.84337,0.61061 -8.53293,-1.20292 -0.65607,-0.70422 -1.51704,-2.56782 -1.91326,-4.14135 -0.61115,-2.42709 -0.88938,-2.76928 -1.83471,-2.2565 -3.73789,2.0276 -6.95903,7.8929 -6.29081,11.45481 0.38635,2.05941 4.61968,7.3008 5.89667,7.3008 0.32865,0 1.12261,-0.975 1.76437,-2.16667 0.64175,-1.19167 2.22983,-2.75732 3.52906,-3.47924 7.64691,-4.24897 6.78977,-3.9715 8.35446,-2.70449 0.77945,0.63116 1.41718,1.37233 1.41718,1.64705 0,0.90242 -2.78103,3.48187 -3.75396,3.48187 -0.95616,0 -6.49755,3.8651 -6.53485,4.55803 -0.0437,0.81226 6.32144,2.40966 9.83275,2.46762 2.05252,0.0339 5.96661,-0.39756 8.69798,-0.95876 z m -30.56444,-1.78378 c -1.01121,-1.18792 -2.29034,-3 -2.84252,-4.02685 -0.96504,-1.79463 -1.15859,-1.85853 -4.99328,-1.64869 -4.61796,0.2527 -5.23486,1.29887 -1.743,2.95586 1.23548,0.58628 2.55913,1.65043 2.94145,2.36479 0.87037,1.6263 2.7963,2.42132 5.99305,2.4739 l 2.48285,0.0408 z m -3.33391,-12.91706 c 0.28464,-1.99786 1.21307,-4.2202 2.52802,-6.05125 l 2.07817,-2.8938 -4.95573,0.31804 c -4.06969,0.26118 -5.25539,0.59433 -6.63174,1.86333 -2.11686,1.95175 -3.44283,5.0308 -3.44283,7.99465 v 2.30283 l 4.98713,-0.18818 4.98714,-0.18817 z m 44.45133,1.769 c 1.33804,-1.21091 1.56047,-4.09242 0.4051,-5.24779 -1.84517,-1.84517 -6.3141,-0.0747 -6.3141,2.50141 0,1.15481 2.83238,3.81268 4.063,3.81268 0.36727,0 1.19796,-0.47983 1.846,-1.0663 z"
       id="path1"
       sodipodi:nodetypes="sssssssssssssssscsssssssssssssssssssssssssssssssssccscccssssscsssssssssssssssssssssscssssssscsssssssscssssssssssssssssscsssssssssssssssssssscsssssscssssscscsssssssssssssssssssssscssscsscsccssssscsscsssssssssssssssssssssscssssssssssssssssssssscssscssscccssssss" /><path
       style="fill:#2b89e9;fill-opacity:1;fill-rule:evenodd;stroke-width:0.196163"
       d="m 344.15908,337.71572 c -1.52574,-0.20727 -1.59382,-0.30933 -1.59382,-2.38909 0,-1.19491 1.43225,-21.31829 3.18278,-44.7186 4.13302,-55.24822 4.69863,-63.51681 4.36753,-63.84853 -0.15119,-0.15148 -9.69095,-0.34919 -21.19946,-0.43934 -24.84057,-0.1946 -49.42002,0.68997 -61.02561,2.19617 l -2.33968,0.30366 8.12843,-7.76826 c 2.30006,-2.19815 3.25288,-3.66763 7.57244,-18.84283 0.94285,-3.31237 0.77478,-10.02697 4.20204,-9.45276 16.17307,2.70966 56.55108,1.02672 65.56612,-1.37345 1.27093,-0.33837 1.91142,-0.82172 2.0859,-1.57415 0.1385,-0.59721 1.35467,-15.76128 2.70259,-33.69793 2.736,-36.40753 3.52108,-44.42312 4.9544,-50.58441 1.27373,-5.4753 3.01326,-8.246134 6.14466,-9.787624 2.34972,-1.1567 2.59576,-1.17409 16.60687,-1.17409 14.46835,0 16.60056,0.17908 17.08239,1.43471 0.14934,0.38917 -0.0446,4.639234 -0.43091,9.444584 -0.82951,10.31756 -5.43063,74.4491 -5.91328,82.4207 l -0.33403,5.51709 30.10724,0.03 c 37.7937,0.0376 49.56328,0.42793 52.18439,1.73042 2.81104,1.39688 2.97884,1.92518 2.3053,7.25794 -0.88057,6.9719 -3.00638,17.44284 -4.00028,19.70386 -0.71641,1.62976 -1.36058,2.21072 -3.51865,3.17339 l -2.64169,1.17839 -32.36689,0.0143 -32.36688,0.0143 -2.86004,1.15369 c -3.81493,1.53887 -5.88603,3.45727 -7.69122,7.12412 -2.80078,5.6892 -3.96491,14.19537 -5.88071,42.96976 -3.43525,51.59587 -4.12272,55.65994 -9.93291,58.71963 l -2.56916,1.35294 -14.46702,0.064 c -7.95686,0.0352 -15.18424,-0.0334 -16.06084,-0.1525 z"
       id="path3"
       sodipodi:nodetypes="sssssscsssssssssssscssssscccsssscsss" /><path
       d="m 302.12279,124.33701 c 6.08053,-1.05482 9.86277,-2.23915 20.29355,-6.35448 13.30002,-5.24734 20.76372,-8.52228 21.43431,-9.40497 0.8069,-1.06214 -0.15982,-2.86561 -2.82836,-5.27648 -4.4061,-3.980644 -12.14498,-6.037894 -27.03333,-7.186344 -8.36718,-0.64542 -20.79446,-0.32647 -23.4491,0.60184 -2.29852,0.80377 -6.01126,3.0087 -6.24453,3.708514 -0.28572,0.85716 3.70321,2.93632 6.73493,3.51047 1.48349,0.28094 4.75253,0.76307 7.26456,1.0714 l 4.56731,0.5606 2.7888,-2.95386 c 3.0001,-3.177684 4.80959,-3.910014 8.27261,-3.348044 4.75875,0.772244 8.2481,6.069304 7.0149,10.649084 -1.04754,3.89025 -4.81319,6.85258 -8.6823,6.83012 -4.02,-0.0233 -7.47792,-2.6606 -8.50894,-6.48952 l -0.52739,-1.95857 -3.76534,0.22966 c -2.07093,0.12631 -5.02553,0.63266 -6.56577,1.12522 -2.31979,0.74186 -3.12101,0.79951 -4.66828,0.33594 -2.76916,-0.82966 -3.45679,-1.51553 -4.7687,-4.75654 -0.8042,-1.98674 -1.49689,-2.99044 -2.13265,-3.09023 -1.32859,-0.20853 -5.2102,4.25187 -6.18191,7.1037 -0.98249,2.88343 -0.98327,4.22574 -0.004,6.12032 1.02967,1.99117 4.57185,5.80445 5.39178,5.80445 0.35728,0 1.33128,-0.99079 2.16446,-2.20177 1.0564,-1.53543 2.659,-2.86849 5.29544,-4.40481 4.21592,-2.45672 5.42212,-2.67741 6.73067,-1.23148 0.87248,0.96409 0.85974,1.02634 -0.50075,2.44639 -0.76781,0.80142 -1.8537,1.59909 -2.41309,1.7726 -1.3328,0.4134 -6.65675,4.13534 -6.65675,4.65369 0,0.66427 1.86604,1.45714 5.06757,2.15319 4.06254,0.88324 6.72857,0.87874 11.90984,-0.0201 z m 12.09804,-12.98134 c 2.27836,-1.79216 2.18623,-5.1236 -0.17667,-6.38819 -1.34854,-0.72171 -4.17465,0.2328 -5.16516,1.74451 -0.64788,0.98879 -0.65869,1.32581 -0.0781,2.43394 0.59971,1.14459 3.06824,3.18478 3.86374,3.1933 0.16591,0.002 0.86619,-0.44083 1.55617,-0.98356 z"
       style="opacity:1;fill:#000000;fill-opacity:0;fill-rule:evenodd;stroke:#ee0000;stroke-width:2.05971;stroke-dasharray:none;stroke-opacity:1"
       id="path1-8"
       sodipodi:nodetypes="ssssssssscssssscsssssscsssssssssssssscss" /><path
       style="opacity:1;fill:none;fill-opacity:1;fill-rule:evenodd;stroke:none;stroke-width:0.728218;stroke-dasharray:none;stroke-opacity:1"
       d="m 133.27286,255.62253 c -1.08803,-0.73322 -2.38224,-3.34385 -4.22152,-8.51548 -3.85594,-10.84199 -8.4179,-29.724 -8.4179,-34.84176 0,-2.64876 1.39758,-4.61466 4.89614,-6.88712 0.88319,-0.57366 4.22404,-2.36054 7.42411,-3.97084 l 5.81831,-2.92781 17.502,-0.18483 c 9.6261,-0.10166 25.14829,-0.26411 34.49375,-0.361 37.42454,-0.388 44.47854,-0.66105 47.03247,-1.82054 1.14668,-0.52059 2.62085,-1.65265 3.86524,-2.96821 2.481,-2.62291 3.62362,-5.37368 3.62771,-8.73348 0.002,-1.637 -0.47036,-3.91209 -1.05364,-5.07483 -1.07676,-2.14647 -6.46103,-8.33803 -17.14816,-19.71925 -13.50081,-14.37764 -16.57239,-18.57401 -17.77294,-24.28125 -0.71827,-3.41455 -0.78022,-11.02042 -0.11509,-14.13207 1.33154,-6.22939 7.59731,-14.11531 14.46054,-18.19961 1.78917,-1.06473 4.17444,-2.1022 5.57061,-2.4229 2.07571,-0.47681 4.78202,-0.612514 12.2421,-0.613864 9.75641,-0.002 14.47042,0.304464 15.69484,1.019564 0.85516,0.49944 0.98933,0.93815 0.8829,2.8868 -0.0521,0.95362 -0.25358,2.67013 -0.44777,3.81447 -0.82364,4.85358 -0.66956,6.35097 1.12158,10.89996 1.13041,2.87092 1.65377,4.57656 1.65377,5.38968 0,0.37678 -0.13532,0.52078 -0.73689,0.78417 -0.74047,0.3242 -3.12642,0.85988 -5.45722,1.22522 -1.61837,0.25367 -2.20344,0.67711 -2.07017,1.49832 0.21418,1.31986 1.59624,3.23849 9.40691,13.05915 7.63766,9.60311 12.925,16.5528 14.99402,19.70815 4.73784,7.22546 7.65118,20.21823 6.93319,30.92031 -0.40545,6.04348 -1.30684,9.84381 -3.67676,15.50146 -3.78905,9.0455 -8.77585,15.37496 -15.91006,20.19376 -2.8642,1.93462 -4.97007,3.10872 -10.67851,5.95367 l -5.02817,2.50591 -8.1491,0.37957 c -20.34133,0.94746 -26.83961,1.07719 -58.43082,1.16651 -14.87645,0.042 -28.23437,0.1227 -29.68428,0.17921 l -2.63619,0.10276 -2.65206,1.92253 c -4.26988,3.09534 -7.15415,6.28063 -8.6256,9.52584 -0.28162,0.6211 -0.79495,2.09489 -1.14074,3.2751 -0.6792,2.31812 -1.02571,3.01549 -1.83797,3.69896 -0.64616,0.54371 -0.97444,0.55202 -1.72863,0.0438 z"
       id="path37" /><path
       style="opacity:0.827345;fill:#f0505c;fill-opacity:1;fill-rule:evenodd;stroke:none;stroke-width:1.02986;stroke-dasharray:none;stroke-opacity:1"
       d=""
       id="path45" /><path
       style="opacity:0.827345;fill:#c41f13;fill-opacity:1;fill-rule:evenodd;stroke:none;stroke-width:0.182054;stroke-dasharray:none;stroke-opacity:1"
       d=""
       id="path56" /><path
       style="opacity:0.827345;fill:#c41f13;fill-opacity:1;fill-rule:evenodd;stroke:none;stroke-width:0.182054;stroke-dasharray:none;stroke-opacity:1"
       d=""
       id="path57" /><path
       style="opacity:0.827345;fill:#c41f13;fill-opacity:1;fill-rule:evenodd;stroke:none;stroke-width:0.364109;stroke-dasharray:none;stroke-opacity:1"
       d="m 311.75448,113.0599 c -0.57949,-0.26975 -1.44309,-0.87984 -2.13118,-1.50555 -1.38965,-1.26371 -2.11486,-2.41799 -2.19142,-3.48804 -0.0401,-0.55995 -0.0215,-0.64338 0.27906,-1.25144 0.7231,-1.46308 2.1967,-2.52469 4.08879,-2.94564 1.52785,-0.33991 2.80994,0.0339 3.81679,1.1128 1.09616,1.17462 1.47701,2.68427 1.07436,4.25864 -0.39015,1.52546 -1.34537,2.67965 -3.08672,3.72965 -0.64556,0.38927 -1.15308,0.41385 -1.84968,0.0896 z m 1.41221,-2.1556 c 0.71268,-0.51249 1.12043,-0.95235 1.41392,-1.52527 0.21727,-0.42415 0.24425,-0.56778 0.24425,-1.30039 0,-0.92525 -0.0969,-1.19282 -0.63807,-1.76267 -0.44308,-0.46653 -0.70077,-0.57803 -1.33582,-0.57803 -0.90467,0 -1.9708,0.39492 -2.63249,0.97513 -0.48387,0.42428 -0.81202,0.92065 -0.81109,1.22686 10e-4,0.38966 0.45001,1.1129 1.08425,1.74714 0.56611,0.56612 1.89302,1.59919 2.05404,1.59919 0.0494,0 0.32887,-0.17188 0.62101,-0.38196 z"
       id="path61" /><path
       style="opacity:0.827345;fill:#c41f13;fill-opacity:1;fill-rule:evenodd;stroke:none;stroke-width:0.514928;stroke-dasharray:none;stroke-opacity:1"
       d="m 293.11236,125.84661 c -3.58808,-0.45082 -7.63921,-1.69247 -8.46444,-2.59433 -0.65148,-0.71195 -0.57899,-1.40717 0.22875,-2.19393 1.20049,-1.16932 4.792,-3.60489 6.36402,-4.31575 0.87944,-0.39767 2.07335,-1.30868 2.62437,-2.00253 0.39241,-0.49412 0.36311,-0.64556 -0.20727,-1.07141 -0.65707,-0.49058 -1.60531,-0.24233 -3.95033,1.03419 -3.21871,1.75212 -4.98213,3.12236 -6.28446,4.88327 -1.80145,2.43577 -2.63966,2.89721 -3.91023,2.1526 -0.67115,-0.39332 -2.36214,-2.05657 -3.42278,-3.36663 -2.1116,-2.60818 -2.71825,-4.05389 -2.59161,-6.17607 0.17754,-2.97537 1.87513,-6.27007 4.68522,-9.09312 1.89007,-1.89879 3.00286,-2.31312 4.09252,-1.52378 0.68445,0.49582 1.23914,1.39529 2.15746,3.49854 1.18766,2.72008 1.64414,3.19547 3.70112,3.85438 1.53695,0.49233 2.04203,0.47241 4.40581,-0.17373 2.99211,-0.8179 5.43357,-1.16316 9.67976,-1.36889 l 1.72314,-0.0835 0.46419,1.70176 c 0.60105,2.20351 1.204,3.37493 2.30262,4.47355 1.52932,1.52932 3.90425,2.42522 5.99894,2.26301 2.03843,-0.15786 3.48667,-0.85699 5.08462,-2.45458 1.65807,-1.65769 2.37842,-3.25656 2.37768,-5.27745 -0.001,-3.01736 -1.75457,-5.80379 -4.51342,-7.17225 -1.10275,-0.54698 -2.27046,-0.76474 -3.82902,-0.71404 -1.20647,0.0392 -1.35909,0.0735 -2.20683,0.49514 -1.13639,0.5652 -2.3942,1.67316 -4.66894,4.11271 -1.63442,1.75284 -1.7681,1.86692 -2.11947,1.80873 -0.20626,-0.0342 -1.53361,-0.20061 -2.94966,-0.36989 -5.66585,-0.67731 -9.31327,-1.277 -10.91156,-1.79402 -1.70628,-0.55195 -3.95803,-1.70392 -4.75572,-2.43297 -1.30737,-1.19486 -1.19608,-1.949184 0.47071,-3.190584 0.90509,-0.6741 3.02295,-1.86895 4.33991,-2.44849 2.09018,-0.9198 1.8159,-0.89318 9.81455,-0.9525 11.22166,-0.0832 18.61,0.28824 25.31728,1.2729 7.76181,1.13946 12.81026,3.00284 16.15116,5.961354 1.87355,1.65912 2.2501,1.85766 2.32292,1.2248 0.0367,-0.31936 0.0791,-0.28863 0.80248,0.58236 1.93989,2.33571 2.15771,4.19088 0.61638,5.24968 -1.74591,1.19934 -8.49208,4.14383 -19.59355,8.55197 -12.76292,5.06787 -16.74987,6.28868 -24.20675,7.41214 -1.93813,0.29201 -5.70724,0.4173 -7.13957,0.23734 z m 7.20087,-2.19355 c 7.23205,-1.11554 11.84443,-2.57808 25.74639,-8.16393 8.71656,-3.50234 12.48721,-5.11978 15.47848,-6.63955 1.47434,-0.74907 1.56317,-0.81494 1.56317,-1.15902 0,-1.41599 -3.27303,-4.56956 -6.31399,-6.08355 -4.46028,-2.220614 -10.94636,-3.512274 -22.74264,-4.529024 -3.20977,-0.27666 -16.01594,-0.31975 -18.88069,-0.0635 -2.36377,0.21142 -3.8862,0.45902 -4.70421,0.76508 -0.97634,0.36529 -2.80293,1.31708 -3.9863,2.07716 l -1.0279,0.660214 0.29229,0.23687 c 0.46021,0.37297 2.27404,1.24765 3.44193,1.6598 1.59654,0.56342 5.08663,1.14987 11.09398,1.86415 l 2.22865,0.26499 1.19636,-1.26899 c 2.68699,-2.8501 3.85801,-3.838474 5.33805,-4.505424 0.99499,-0.44838 1.84407,-0.62553 2.99811,-0.62553 2.83839,0 5.15709,0.94557 7.09238,2.892294 2.4368,2.45118 3.52183,5.91541 2.7811,8.87938 -1.10896,4.43744 -5.22587,7.75066 -9.64264,7.76023 -1.58573,0.003 -2.73507,-0.27056 -4.28991,-1.02268 -2.61778,-1.26631 -4.2798,-3.27029 -5.16255,-6.22474 l -0.34074,-1.14042 -0.98771,0.0731 c -4.34569,0.32171 -6.10762,0.59243 -8.77293,1.34799 -2.52756,0.71652 -3.42613,0.70239 -5.61644,-0.0883 -2.20716,-0.79679 -3.09556,-1.74586 -4.37306,-4.67174 -0.84049,-1.92495 -1.32795,-2.77843 -1.5869,-2.77843 -0.49112,0 -2.24346,1.77458 -3.53498,3.57985 -2.03898,2.85007 -2.70544,5.93547 -1.71611,7.94472 0.62536,1.27005 2.63433,3.75861 3.92906,4.86702 0.63995,0.54786 0.65264,0.55246 0.90265,0.32701 0.13947,-0.12576 0.63282,-0.73283 1.09634,-1.34905 1.54678,-2.05636 3.54638,-3.64406 6.91269,-5.48873 2.0165,-1.105 2.89278,-1.44205 3.9356,-1.51378 0.69112,-0.0475 0.98017,-0.0103 1.41615,0.18258 0.70129,0.31022 1.40467,0.92798 1.84415,1.61968 0.56647,0.89158 0.4572,1.42068 -0.53458,2.58848 -0.8237,0.96991 -2.23401,2.04167 -3.458,2.62792 -1.54906,0.74194 -5.34666,3.31026 -5.34666,3.61594 0,0.27141 3.21406,1.18419 5.37382,1.52614 0.65196,0.10323 1.32331,0.21231 1.49189,0.24241 0.80377,0.14353 5.29176,-0.0438 6.8657,-0.28659 z"
       id="path62" /><path
       style="opacity:0.827345;fill:#c41f13;fill-opacity:1;fill-rule:evenodd;stroke:none;stroke-width:1.45644;stroke-dasharray:none;stroke-opacity:1"
       d="m 157.13102,240.14643 c 0.42903,-0.17918 -0.88253,-0.29895 -3.43881,-0.31402 -2.27279,-0.0134 -4.06732,-0.0881 -3.98786,-0.1661 0.26845,-0.26331 17.38273,-0.88508 34.30138,-1.24618 31.34168,-0.66895 45.57449,-1.0388 54.44295,-1.41475 l 8.84265,-0.37485 5.89509,-3.12207 c 7.81077,-4.1366 12.23756,-7.11579 15.60568,-10.50248 5.90826,-5.94084 10.63355,-14.80453 12.75131,-23.91888 0.62199,-2.67693 0.728,-4.20454 0.71161,-10.25432 -0.0212,-7.82178 -0.63814,-12.49271 -2.37716,-17.99768 -2.23173,-7.06467 -4.3838,-10.41599 -17.55185,-27.33264 -9.52238,-12.23315 -11.2501,-14.67136 -10.95011,-15.45311 0.0922,-0.24026 1.71724,-0.7863 3.6112,-1.21343 3.55677,-0.80212 4.26781,-1.17002 4.26781,-2.20822 0,-0.33407 -0.64365,-2.60455 -1.43033,-5.04551 -1.01765,-3.15762 -1.44258,-5.08843 -1.47282,-6.69211 -0.0549,-2.91048 0.39038,-5.99256 0.98271,-6.80262 0.3983,-0.54471 0.44009,-0.10544 0.28494,2.99546 -0.16382,3.27409 -0.0928,3.89778 0.7176,6.30101 1.28902,3.82265 2.71474,5.93733 5.34577,7.92907 3.16314,2.39456 5.68817,3.55626 8.11065,3.73149 5.30945,0.38405 5.0119,-2.81217 -0.89561,-9.62057 -1.06334,-1.2255 -1.93258,-2.55189 -1.93165,-2.94755 0.004,-1.73509 4.88058,-9.90878 5.91166,-9.90878 0.53619,0 0.42567,0.34961 -0.73994,2.3407 -1.63052,2.78524 -2.04796,4.13644 -2.05055,6.63735 -0.003,2.50945 1.00232,4.43576 3.84955,7.37916 2.63821,2.72732 3.71853,3.00595 5.902,1.52225 l 1.24521,-0.84615 -0.0377,1.25637 c -0.0312,1.04096 0.14935,1.38404 1.05337,2.00107 2.47138,1.68682 4.67232,2.07596 11.73942,2.07559 6.36149,-3.3e-4 6.72772,-0.039 10.6227,-1.12084 7.08986,-1.96928 23.01319,-7.988 31.97254,-12.085 2.6762,-1.2238 4.93221,-2.22509 5.01335,-2.22509 0.0811,0 0.0496,0.42912 -0.07,0.95362 -0.39716,1.74138 -4.48187,14.99724 -4.58846,14.89065 -0.0576,-0.0576 -0.24793,-1.38461 -0.42294,-2.94889 -0.17975,-1.60666 -0.57716,-3.23938 -0.91336,-3.75249 -0.56595,-0.86373 -0.70827,-0.89978 -2.89907,-0.7342 -2.50965,0.18967 -8.657,2.07778 -15.65456,4.80817 -7.50936,2.9301 -9.2465,4.31828 -8.29085,6.62543 1.20637,2.91243 12.03249,10.55705 22.78818,16.09138 4.37962,2.25351 7.08014,3.25137 8.79923,3.25137 h 0.97737 v 2.95056 2.95056 l -1.88332,2.04858 c -1.03583,1.12673 -2.13966,2.54429 -2.45296,3.15015 -0.31331,0.60586 -0.62182,1.04805 -0.68559,0.98265 -0.0638,-0.0654 -0.37705,-1.91346 -0.69617,-4.10678 -0.31912,-2.19332 -0.85587,-4.6172 -1.19279,-5.3864 -1.54853,-3.53543 -5.42038,-5.23385 -20.54806,-9.01363 -8.93186,-2.2317 -14.25722,-3.76896 -28.20923,-8.14311 -18.38697,-5.76457 -25.48109,-7.12093 -28.68378,-5.48421 -1.59712,0.81621 -0.29009,3.09432 6.82891,11.90254 6.21757,7.69288 9.82239,13.10075 12.71341,19.07236 2.74349,5.66685 4.25993,9.9935 5.21327,14.87426 0.85238,4.36387 1.32577,12.51258 0.95668,16.46774 -0.51782,5.54893 -4.1128,18.08211 -6.61259,23.05347 -0.78559,1.56232 -2.21198,3.26928 -5.36514,6.42046 -2.4062,2.4047 -5.2487,5.82329 -5.46039,6.04332 -0.77941,0.8101 -3.70306,2.9517 -8.70761,5.43853 -9.92926,4.93398 -13.82116,5.31017 -60.85821,5.88243 -15.92543,0.19375 -31.68614,0.41804 -35.02381,0.49842 -3.41737,0.0823 -5.7655,0.0196 -5.37494,-0.14351 z"
       id="path63"
       sodipodi:nodetypes="sscsscssssssssssssssssscsscsscssssssssssssssscccssssssssssssssssssss" /><path
       style="opacity:0.827345;fill:#c41f13;fill-opacity:1;fill-rule:evenodd;stroke:none;stroke-width:1.45644;stroke-dasharray:none;stroke-opacity:1"
       d="m 183.65896,367.55533 c -11.05498,-0.88484 -19.53932,-2.99002 -32.24965,-8.00198 -15.39262,-6.06965 -27.36558,-13.02298 -37.6876,-21.88719 -26.835766,-23.04566 -43.935418,-51.23147 -50.216766,-82.77362 -3.904792,-19.60814 -3.795521,-39.13695 0.333734,-59.6445 5.074205,-25.20057 16.731479,-47.44267 35.803818,-68.31376 12.296024,-13.4557 23.023724,-21.41145 38.642894,-28.657914 19.2253,-8.91951 36.98063,-12.47807 59.76454,-11.97814 15.49575,0.34002 22.24199,1.46276 40.06745,6.66825 14.79797,4.32139 20.15096,4.66898 37.48359,2.43397 9.49342,-1.22415 20.08206,-1.71005 31.68163,-1.45383 14.7962,0.32683 20.34898,0.92112 25.48763,2.72783 3.58433,1.26023 5.98909,2.44657 7.71564,3.806344 1.38107,1.08768 1.84219,2.13482 0.52015,1.18119 -1.47079,-1.06094 -5.28867,-2.892134 -7.54225,-3.617534 -7.82928,-2.52014 -24.50603,-4.01247 -36.14328,-3.23429 -3.48485,0.23303 -7.11633,0.57159 -8.06995,0.75236 -2.44368,0.46321 -6.60758,2.64906 -7.91315,4.15403 -0.60659,0.699224 -1.64627,1.457084 -2.31042,1.684134 -0.66415,0.22705 -1.72427,0.91365 -2.35582,1.52578 -1.46291,1.4179 -1.94269,0.85951 -1.1532,-1.34216 0.49194,-1.3719 0.49596,-1.586254 0.0352,-1.878154 -0.66917,-0.4239 -5.94825,-0.42843 -9.60233,-0.008 -3.55319,0.408584 -5.14199,1.210374 -7.2213,3.644234 -0.90169,1.05544 -1.75624,1.91899 -1.89899,1.91899 -0.14275,0 -0.34067,-0.71969 -0.43982,-1.59931 -0.11108,-0.9855 -0.46469,-1.88385 -0.92135,-2.3407 -0.724,-0.7243 -1.02078,-0.7441 -12.87251,-0.85878 -13.96527,-0.13513 -15.59855,0.0363 -19.82543,2.08033 -6.03563,2.91876 -10.51793,7.12033 -13.26002,12.42954 -2.56106,4.95866 -3.08336,7.40171 -3.11345,14.56285 -0.0224,5.33629 0.0668,6.36135 0.73925,8.49587 1.66379,5.28105 5.13604,9.86406 18.78488,24.79407 11.39453,12.4641 13.81804,15.4349 15.52351,19.0291 1.41918,2.99085 1.31601,5.1038 -0.4084,8.36472 -2.45105,4.63501 -4.11655,5.72631 -10.04403,6.58124 -4.51765,0.65159 -22.05909,1.01133 -58.30787,1.1958 l -36.11456,0.18378 -4.28419,2.30384 c -8.75863,4.71 -12.4228,7.14959 -13.38716,8.91314 -0.96596,1.76649 -0.81102,8.23288 0.40017,14.1132 l 7.90157,38.36233 c 1.58109,7.67625 15.33026,24.80083 19.73969,25.59452 2.08844,0.37591 -6.06236,-10.02036 -9.21408,-14.3155 -7.17452,-9.77741 -3.84441,-14.66827 -2.34222,-19.30202 1.22693,-3.78465 2.1598,-5.68821 3.91474,-7.98822 1.25656,-1.64685 2.05574,-2.21391 5.86838,-4.16394 1.74266,-0.89132 5.61764,-1.67633 7.14891,-1.44827 0.88227,0.1314 0.85053,0.15506 -0.26945,0.20089 -1.73345,0.071 -5.14632,1.17025 -6.99302,2.25249 -4.30593,2.52344 -6.47523,7.69272 -6.47523,15.43 0,4.86893 0.67849,7.11952 3.59762,11.93353 5.87307,9.68541 10.85213,14.75699 19.84046,20.20912 3.80771,2.30967 17.82562,9.52456 18.50541,9.52456 0.395,0 5.54941,-2.15203 41.28141,-17.23547 36.30129,-15.32376 42.40326,-18.03984 45.33053,-20.17729 0.91246,-0.66626 2.32755,-2.39967 3.75591,-4.60077 5.52081,-8.50755 9.47489,-11.92391 16.45317,-14.21569 2.84198,-0.93335 3.94311,-1.10517 8.01944,-1.25136 5.34335,-0.19164 8.3338,0.20243 11.74647,1.54789 2.95515,1.16509 6.8212,3.73072 7.44793,4.94269 0.459,0.8876 0.4382,1.01629 -0.26749,1.65505 -1.06926,0.96786 -4.68378,2.99795 -11.1683,6.27266 -3.05158,1.54107 -6.28955,3.27451 -7.19549,3.8521 -1.56278,0.99638 -1.64716,1.12958 -1.64716,2.60037 0,2.86448 2.84487,10.47102 5.19216,13.88269 0.59532,0.86528 1.53544,1.80751 2.08915,2.09384 1.99064,1.0294 3.41495,0.73331 16.20938,-3.3696 4.24194,-1.3603 7.80782,-2.37808 7.92417,-2.26173 0.35081,0.3508 -0.57895,5.12139 -1.5031,7.7124 -1.91565,5.37085 -5.20002,9.6775 -11.40887,14.95993 -5.66437,4.81919 -6.9781,6.42832 -12.97956,15.89806 -2.9969,4.72882 -7.12175,9.47415 -15.54517,17.88354 -11.65396,11.63455 -16.28716,15.57811 -23.09473,19.65714 -13.37422,8.01372 -32.39171,15.21196 -46.12046,17.45691 -2.28492,0.37364 -27.77626,0.74132 -31.38272,0.45266 z M 158.25668,349.7394 c 1.57273,-0.37816 4.24134,-1.22122 5.93023,-1.87347 7.48531,-2.89083 8.16578,-3.56517 10.54947,-10.45431 2.37552,-6.86554 2.56639,-11.45847 0.69359,-16.69009 -2.90842,-8.12457 -8.63918,-13.32913 -16.38461,-14.88014 -7.31255,-1.46433 -15.04864,0.48372 -18.9147,4.76299 -3.97201,4.39655 -9.52348,15.73084 -9.07089,18.51983 0.59903,3.69137 10.39478,18.80055 13.18624,20.33875 2.57947,1.42137 8.7432,1.54298 14.01067,0.27644 z m 28.74054,-23.0403 c 11.1878,-3.84796 69.75184,-28.18327 81.33531,-33.79753 5.06367,-2.45425 6.41061,-3.45986 5.91251,-4.41418 -1.06816,-2.04651 -4.34917,-11.30832 -5.26745,-14.86925 -1.35106,-5.23914 -1.93259,-5.90984 -4.85891,-5.60398 -3.94189,0.41201 -17.60956,5.72427 -47.68992,18.53581 -27.92326,11.89282 -41.10707,18.07533 -43.60638,20.4491 -1.55081,1.47291 -1.46861,1.78904 2.68144,10.31214 1.39301,2.86086 2.80822,6.05755 3.14492,7.10377 0.66646,2.07084 2.13467,3.8195 3.20694,3.8195 0.37261,0 2.6863,-0.69092 5.14154,-1.53538 z m 119.11429,-28.8997 c 2.82523,-0.80782 4.80225,-1.94479 7.79179,-4.481 4.15044,-3.52107 7.63981,-8.51011 8.68528,-12.41808 0.61489,-2.29847 0.59014,-3.12672 -0.11451,-3.83136 -0.9178,-0.91781 -3.26897,-0.48641 -11.03022,2.02387 -3.81448,1.23374 -7.9944,2.4821 -9.28872,2.77412 -2.32926,0.52552 -2.35848,0.52306 -2.85948,-0.24157 -2.13264,-3.25481 -8.16739,-20.44823 -7.41997,-21.13997 0.082,-0.0759 2.7238,-1.37428 5.87074,-2.88538 9.73883,-4.6764 13.17727,-6.96173 13.17727,-8.75815 0,-1.17238 -0.68708,-1.81647 -3.13033,-2.93445 -6.36285,-2.91149 -16.39211,-2.79701 -23.31847,0.26615 -9.26883,4.09911 -14.16995,12.9082 -14.14985,25.43238 0.006,3.45115 0.1346,4.33148 1.0054,6.85785 1.34946,3.91505 4.32021,8.32052 8.19049,12.14608 4.34919,4.29894 8.05208,6.37663 13.54409,7.59958 3.21011,0.71483 9.84129,0.5064 13.04649,-0.41007 z M 126.63588,201.21321 c 3.25366,-1.4372 6.76471,-2.85897 7.80233,-3.1595 6.53862,-1.8938 18.46147,-2.30247 41.41841,-1.41966 11.55363,0.4443 19.63221,0.55997 29.3021,0.41955 22.3353,-0.32433 29.35038,-1.42093 32.18754,-5.03156 1.81106,-2.30478 2.29194,-3.55296 2.30443,-5.9814 0.01,-1.93397 -0.17895,-2.65772 -1.26964,-4.86459 -2.33007,-4.71458 -5.0724,-7.9999 -17.76634,-21.28418 -9.48148,-9.92242 -12.92459,-13.77731 -14.30946,-16.02082 l -0.97314,-1.57651 -10.40312,0.22683 c -12.44713,0.27141 -18.97608,0.70472 -22.01992,1.46141 -3.16741,0.78741 -11.00244,3.98226 -14.91112,6.08022 -12.14792,6.52038 -22.06114,15.57732 -29.81659,27.24111 -5.46372,8.21715 -8.5546,15.99862 -9.19363,23.14548 -0.11937,1.33507 -0.29973,2.86453 -0.40079,3.39881 l -0.18374,0.97142 1.15846,-0.49677 c 0.63716,-0.27322 3.82056,-1.67265 7.07422,-3.10984 z"
       id="path64"
       sodipodi:nodetypes="cssssssssssssssssssssscsssssssssssssscsssssssssscssssssssssssssssssssssssssccsssssssssssssssssssssssssssssssscssssssssssssscsssssscss" /><path
       style="opacity:1;mix-blend-mode:normal;fill:#c41f13;fill-opacity:1;fill-rule:evenodd;stroke:none;stroke-width:2.05971;stroke-dasharray:none;stroke-opacity:1"
       d="m 122.39257,254.02825 c -1.72918,-3.93984 -9.78762,-31.17859 -9.90949,-42.31886 -0.0392,-3.58268 4.05629,-12.13969 5.10292,-12.82549 4.61643,-3.02491 4.92901,-2.74489 9.42807,-2.61353 l 3.61264,0.10548 34.11908,-0.79823 c 37.55049,-0.87851 58.47152,-0.56343 62.87508,-1.63357 3.68175,-0.89473 5.05681,-1.94483 7.14793,-5.4587 1.31765,-2.21414 1.6973,-3.3964 1.71643,-5.34508 0.0438,-4.45746 -2.39866,-8.06855 -14.10126,-20.84854 -14.40745,-15.73385 -13.20041,-15.33023 -15.77605,-20.82439 -1.22289,-2.60858 -5.89787,-7.85589 -5.89787,-14.52877 0,-6.15737 0.15202,-7.55088 1.13368,-10.39195 2.44504,-7.07631 7.4819,-12.63874 14.67253,-16.20354 l 4.22252,-2.093344 11.56356,-0.16363 c 6.35996,-0.09 12.70085,-0.0216 14.09087,0.15198 2.2475,0.28066 2.59814,0.48658 3.16701,1.859974 0.37916,0.91537 16.5949,-2.100214 13.62725,0.43234 -7.33996,6.26381 -5.75411,14.40555 -4.3694,18.61572 0.76384,2.3224 1.28455,3.64494 1.12333,4.06504 -0.18403,0.47959 -9.30224,0.0306 -11.63097,0.54867 -2.80554,0.62418 -3.70892,1.02433 -3.70892,1.6429 0,1.14895 1.50822,3.27756 10.8176,15.26725 13.49624,17.38199 15.13952,19.89447 17.44562,26.67319 1.92579,5.66085 2.67501,10.7957 2.69117,18.44427 0.0202,9.55941 -1.14792,14.52539 -5.34829,22.73713 -4.03671,7.89174 -8.834,13.00599 -15.92055,16.97242 -1.55091,0.86807 -2.81984,1.75904 -2.81984,1.97994 0,0.22091 -2.43075,1.645 -5.40166,3.16466 l -5.40165,2.76301 -9.43317,0.44888 c -5.18824,0.24689 -20.79836,0.67954 -34.68915,0.96146 -28.38104,0.576 -52.2288,1.36984 -54.58273,1.81695 -5.56773,1.05754 -11.34041,7.18344 -13.08847,13.88933 -0.64625,2.47913 -0.76481,4.5003 -0.84913,5.2483 -0.25409,2.254 -1.06245,6.05189 -0.12202,10.87186 z"
       id="path65"
       sodipodi:nodetypes="cssscssssssssscssssssssssssssscssssscc" /><path
       style="opacity:1;fill:#c41f13;fill-opacity:1;fill-rule:evenodd;stroke:none;stroke-width:2.91287;stroke-dasharray:none;stroke-opacity:1"
       d="m 174.87062,366.16291 c -14.81395,-2.57492 -40.0249,-13.40107 -53.11018,-22.80669 -3.43303,-2.46764 -9.59261,-7.64057 -13.68797,-11.49541 C 77.397573,302.98747 61.109238,266.38237 61.081313,226.25665 61.058333,193.2406 72.082689,161.2187 91.932796,136.64385 106.76774,118.27787 119.32911,107.92019 137.0453,99.445566 c 21.40825,-10.24071 42.74614,-14.19185 67.33975,-12.46931 12.28483,0.86044 18.82842,2.09816 33.54348,6.34475 8.83797,2.55054 11.14866,2.94384 19.07237,3.24626 5.97957,0.22822 12.2165,-0.0309 18.51905,-0.76926 5.22666,-0.61236 10.84434,-1.08874 12.48373,-1.05862 3.0354,0.0557 2.99886,0.20981 -0.21677,0.9138 -0.99572,0.21799 -3.86879,1.80575 -6.3846,3.52837 -2.5158,1.722614 -4.74403,3.132024 -4.95162,3.132024 -0.20758,0 -0.37742,-0.61824 -0.37742,-1.37387 0,-1.981324 -1.6544,-2.154944 -14.56436,-1.528414 -9.98163,0.48442 -11.5471,0.41733 -12.25511,-0.52518 -0.6924,-0.92176 -2.90563,-1.0688 -15.06038,-1.00054 l -14.24869,0.08 -4.74677,2.820014 c -5.77903,3.43326 -10.07119,7.95425 -12.52877,13.19671 -1.61237,3.43949 -1.8451,4.81074 -1.8451,10.87136 0,6.73057 0.0778,7.07612 2.63331,11.69986 1.44832,2.62045 2.54043,4.85734 2.4269,4.97087 -0.11352,0.11352 -5.82386,0.40648 -12.68965,0.65101 -16.38175,0.58345 -20.78488,1.27009 -28.49066,4.44294 -17.73926,7.30411 -32.39508,20.90122 -40.82923,37.87981 -2.08434,4.19593 -4.00693,8.87019 -4.27244,10.38726 -0.28193,1.61087 -1.13463,3.27108 -2.04978,3.99094 -0.86187,0.67794 -2.42004,3.4068 -3.4626,6.06411 -1.65422,4.21633 -1.84649,5.47424 -1.51007,9.87988 0.45189,5.91773 3.16766,18.41918 6.44521,29.66909 2.45628,8.43097 7.4306,20.68042 8.87155,21.84654 0.47135,0.38144 1.60507,1.94191 2.51938,3.4677 4.56458,7.61732 13.6597,17.68529 15.97638,17.68529 1.90762,0 1.27801,-1.29997 -4.53464,-9.3628 -6.35445,-8.81438 -7.96035,-12.00489 -7.96035,-15.81523 0,-6.22498 5.67597,-18.51504 8.55088,-18.51504 0.37407,0 0.17553,0.55759 -0.44121,1.23908 -3.05554,3.37632 -4.73046,12.67858 -3.27343,18.18006 2.06481,7.79634 11.74361,19.84621 20.64261,25.69956 5.64315,3.71179 19.68054,11.0581 21.12992,11.0581 0.52058,0 8.71968,-3.28311 18.22024,-7.29581 9.50057,-4.0127 17.56335,-7.19929 17.91729,-7.08131 0.35395,0.11799 -2.59253,1.58565 -6.54772,3.26148 -21.30425,9.02669 -36.30277,16.28791 -38.08874,18.43988 -0.82815,0.99786 -0.77067,1.23023 2.0474,8.27719 0.15326,0.38323 -1.21603,-0.95725 -3.04286,-2.97884 -3.88354,-4.29757 -6.79787,-5.94079 -12.53977,-7.07044 -7.43313,-1.46238 -15.48723,0.97568 -19.56479,5.92247 -2.23737,2.71432 -7.33438,12.67616 -8.05475,15.74259 -0.32539,1.38509 0.14662,3.08375 1.73443,6.24186 2.77775,5.5249 8.65465,14.07055 10.88043,15.82134 3.77399,2.96863 19.12879,0.94299 26.29283,-3.4686 4.33619,-2.67021 7.57696,-12.2706 6.9193,-20.49757 l -0.38809,-4.85478 1.90886,3.81376 c 1.04987,2.09756 2.43868,3.91579 3.08625,4.0405 0.64757,0.12472 2.8117,-0.30212 4.80918,-0.94853 8.78479,-2.84283 68.34969,-27.48975 81.26895,-33.62769 7.10085,-3.3736 7.79398,-4.09995 6.61908,-6.93638 -1.33859,-3.23166 -0.46228,-3.08132 1.99653,0.34251 3.6557,5.09048 10.26265,9.77116 15.60985,11.05879 4.33902,1.04484 13.48239,0.5327 16.81598,-0.9419 1.76777,-0.78197 3.39875,-1.42176 3.6244,-1.42176 0.22566,0 -1.33112,1.79454 -3.4595,3.98786 -2.12838,2.19332 -6.17539,7.42088 -8.99336,11.61681 -3.84356,5.72302 -7.89606,10.40547 -16.22118,18.74267 -6.10369,6.11254 -13.28227,12.7494 -15.9524,14.74856 -9.3111,6.97134 -29.00336,15.96388 -43.69307,19.95259 -6.5723,1.78458 -7.87948,1.89457 -24.96747,2.10069 -13.53628,0.16328 -19.4883,-0.0356 -23.87285,-0.79772 z"
       id="path66" /><path
       style="opacity:1;fill:#c41f13;fill-opacity:1;fill-rule:evenodd;stroke:none;stroke-width:0.0455136;stroke-dasharray:none;stroke-opacity:1"
       d="m 213.26242,152.10459 c -0.0231,-0.026 -0.24448,-0.26639 -0.49198,-0.53418 -3.02585,-3.27385 -4.83749,-5.38189 -5.89441,-6.85879 -0.2645,-0.36961 -0.46843,-0.68508 -1.01224,-1.56589 l -0.5252,-0.85067 -0.24199,0.003 c -0.20726,0.003 -9.26852,0.19741 -10.68303,0.2297 -1.9093,0.0436 -5.20965,0.13205 -5.42642,0.14545 l -0.0786,0.005 v -0.16713 -0.16713 h 0.0476 c 0.0262,0 0.33462,-0.0121 0.68542,-0.027 1.04232,-0.0441 1.95092,-0.0789 4.24638,-0.16265 2.10177,-0.0767 5.51833,-0.21659 6.34482,-0.25983 0.0626,-0.003 0.27227,-0.0133 0.46597,-0.0223 2.11635,-0.0983 4.0823,-0.2143 4.77351,-0.28174 0.31775,-0.031 0.4105,-0.0478 0.42142,-0.0762 0.0275,-0.0716 -0.15322,-0.52836 -0.48632,-1.2292 -0.116,-0.24408 -0.66887,-1.35422 -0.71508,-1.43585 -0.0135,-0.0238 -0.0649,-0.12137 -0.11427,-0.21673 -0.28563,-0.55189 -0.68608,-1.29598 -1.21834,-2.26382 -0.68705,-1.2493 -1.0403,-1.91695 -1.27406,-2.40798 l -0.0745,-0.15657 0.126,0.003 0.126,0.003 0.0427,0.0975 c 0.60845,1.39021 1.40651,2.82906 2.72578,4.91439 0.49715,0.78583 0.59293,0.93795 0.74368,1.18119 0.62981,1.01621 0.74675,1.24673 1.55035,3.05591 0.80447,1.81116 1.07679,2.36684 1.5799,3.22388 0.85197,1.4513 2.18624,3.23258 4.22753,5.64384 0.1,0.11809 0.17943,0.21705 0.17657,0.21991 -0.003,0.003 -0.0241,-0.0161 -0.0472,-0.0421 z"
       id="path67" /><path
       style="opacity:1;fill:#c41f13;fill-opacity:1;fill-rule:evenodd;stroke:none;stroke-width:0.064366;stroke-dasharray:none;stroke-opacity:1"
       d=""
       id="path68" /><path
       style="opacity:1;fill:#c41f13;fill-opacity:1;fill-rule:evenodd;stroke:none;stroke-width:0.257464;stroke-dasharray:none;stroke-opacity:1"
       d="m 116.80891,209.84757 v -9.94689 l 0.21533,-0.31974 c 0.32573,-0.48369 0.54897,-0.67566 1.4136,-1.21564 1.15552,-0.72163 1.45962,-0.89766 2.14108,-1.23936 0.81157,-0.40695 1.00287,-0.48388 1.65512,-0.66553 0.77561,-0.21602 1.70957,-0.24057 5.42513,-0.1426 3.35736,0.0885 2.73172,0.0998 29.17924,-0.52409 12.98233,-0.30624 18.08763,-0.41374 26.08355,-0.54926 5.40618,-0.0916 8.46235,-0.13747 20.50516,-0.30754 13.54979,-0.19135 18.9163,-0.34928 22.00703,-0.64764 2.06407,-0.19925 3.70388,-0.62112 5.12693,-1.31899 0.78745,-0.38617 1.3386,-0.77583 1.9738,-1.39545 1.18644,-1.15736 2.98679,-4.04907 3.55525,-5.71044 0.59683,-1.74427 0.56332,-4.00809 -0.0884,-5.97684 -0.96788,-2.92353 -3.69714,-6.63096 -10.28902,-13.97661 -0.73728,-0.82159 -2.00007,-2.21136 -5.15226,-5.67034 -3.61088,-3.96232 -6.84106,-7.62207 -8.26463,-9.36371 -0.29625,-0.36244 -0.55568,-0.65899 -0.57652,-0.65899 -0.0208,0 0.0268,0.0689 0.10586,0.15301 0.0791,0.0842 0.12886,0.16791 0.11065,0.18611 -0.0524,0.0524 -2.21077,-2.35497 -3.55102,-3.96065 -0.96019,-1.15034 -1.6207,-2.0565 -2.32005,-3.18287 -0.3454,-0.55631 -0.65948,-1.04256 -0.69795,-1.08058 -0.0686,-0.0678 -1.11501,-0.0501 -12.97379,0.21896 -1.6352,0.0371 -3.07654,0.081 -3.20297,0.0975 -0.21259,0.0277 -0.22988,0.0184 -0.22988,-0.12398 0,-0.14244 0.0214,-0.15397 0.28607,-0.15397 0.15734,0 0.26944,-0.0166 0.24912,-0.037 -0.0399,-0.0399 -2.06137,0.0448 -4.6117,0.19324 -9.26819,0.53953 -13.49849,1.37123 -19.67376,3.86798 -16.37321,6.61991 -30.15011,18.52407 -38.9736,33.6758 -2.66234,4.57178 -5.99133,11.92741 -6.58502,14.55005 -0.24104,1.06483 -0.4814,1.79497 -0.81017,2.46108 -0.38971,0.78959 -0.5768,1.04287 -1.37489,1.86128 l -0.65724,0.67397 V 155.64492 111.672 l 0.68964,-0.51747 c 3.96766,-2.97712 8.46128,-5.84789 13.28697,-8.48842 1.45538,-0.79636 5.73856,-2.964587 7.17221,-3.630713 2.99796,-1.392959 5.27492,-2.375841 8.42888,-3.638444 l 1.40992,-0.564424 47.71009,-0.01544 47.7101,-0.01544 0.84024,0.210507 c 4.22472,1.058432 7.86014,1.4604 14.70956,1.626433 5.08116,0.12317 10.72866,-0.143077 16.28486,-0.767735 0.73852,-0.08303 1.35254,-0.141183 1.36449,-0.129233 0.012,0.01195 0.0146,1.495005 0.006,3.295677 -0.0154,3.169812 -0.0193,3.267642 -0.12429,3.075542 -0.0712,-0.13031 -0.13652,-0.48226 -0.19027,-1.02556 -0.10139,-1.0247 -0.1995,-1.211476 -0.78691,-1.497966 -0.82546,-0.402591 -1.86254,-0.502175 -5.08638,-0.488417 -1.35929,0.0058 -2.95419,0.03132 -3.54421,0.05671 -3.74085,0.160971 -6.64183,0.291659 -7.35611,0.33139 -3.24524,0.180514 -7.51086,0.23375 -8.36758,0.10443 -0.94607,-0.142807 -1.16528,-0.234131 -1.6575,-0.690525 -0.51094,-0.473748 -0.84806,-0.61096 -1.8673,-0.760017 -1.63344,-0.238878 -2.0727,-0.245712 -14.96901,-0.232877 l -12.48632,0.01243 -1.49029,0.88174 c -0.81966,0.484957 -2.01441,1.192502 -2.65501,1.572322 -3.60638,2.13829 -5.87888,3.91864 -8.43504,6.60829 -1.80746,1.90184 -3.5399,4.44169 -4.7187,6.91787 -1.10243,2.31575 -1.62207,4.10403 -1.73515,5.97131 l -0.0316,0.52105 0.082,-0.4992 c 0.41806,-2.54554 1.62208,-5.71472 3.1645,-8.3295 1.84623,-3.12982 4.31434,-5.8646 7.31774,-8.10842 1.88478,-1.4081 3.16032,-2.1555 6.59309,-3.863222 l 2.66599,-1.326258 5.21118,-0.0824 c 6.6169,-0.104623 17.20116,-0.118364 18.9426,-0.02459 2.04575,0.110157 3.1369,0.299361 3.7296,0.646711 0.30768,0.180312 0.58089,0.534671 0.80779,1.047723 0.0933,0.210966 0.19701,0.348376 0.28704,0.380296 0.21821,0.0774 1.85781,0.0425 3.11404,-0.0663 0.62374,-0.054 2.0168,-0.180663 3.0957,-0.281499 4.724,-0.441518 6.65872,-0.478613 7.36955,-0.141303 0.37869,0.179699 0.30531,0.308852 -0.75727,1.332882 -0.52712,0.50798 -1.17737,1.18593 -1.44501,1.50655 -3.2975,3.95013 -4.25594,8.92785 -2.83232,14.70987 0.12077,0.49048 0.50508,1.76073 0.85404,2.82277 0.88749,2.70107 0.95287,2.99295 0.70057,3.12798 -0.20914,0.11193 -1.74232,0.1795 -4.13477,0.18225 -2.66143,0.003 -5.75603,0.09 -6.61124,0.18572 -0.73146,0.0819 -2.75738,0.58271 -3.46573,0.85676 -0.60422,0.23376 -0.96641,0.52805 -1.02334,0.83148 -0.0587,0.31268 0.15279,0.91786 0.58286,1.66822 0.91437,1.59531 2.99113,4.38048 10.36302,13.89795 4.96922,6.4155 6.23823,8.07215 8.28795,10.81962 5.39393,7.23007 7.0784,10.11853 8.83852,15.1558 1.396,3.9952 2.21101,7.76741 2.57957,11.9392 0.17671,2.00028 0.22378,3.08974 0.25953,6.00749 0.11998,9.78928 -0.8799,14.6268 -4.60567,22.28289 -2.47008,5.07578 -4.92941,8.71526 -8.0879,11.96901 l -0.72895,0.75093 H 189.442 116.80907 Z m 94.89383,-59.71211 c 0,-0.0116 -0.0621,-0.0737 -0.13793,-0.13792 l -0.13792,-0.11678 0.11677,0.13793 c 0.10974,0.12961 0.15908,0.16583 0.15908,0.11677 z m -0.52905,-0.65699 c -0.16058,-0.2044 -0.32103,-0.38905 -0.35654,-0.41033 -0.0355,-0.0213 0.0437,0.0977 0.17608,0.26436 0.33215,0.41828 0.41797,0.51761 0.44722,0.51761 0.0139,0 -0.10617,-0.16724 -0.26676,-0.37164 z m -0.39046,-0.50972 c 0,-0.0127 -0.0483,-0.061 -0.10728,-0.10728 -0.0972,-0.0762 -0.0994,-0.0741 -0.0231,0.0232 0.0801,0.10211 0.13043,0.13458 0.13043,0.0841 z m -0.18391,-0.2452 c 0,-0.0127 -0.0483,-0.061 -0.10727,-0.10728 -0.0972,-0.0762 -0.0994,-0.0741 -0.0232,0.0231 0.0801,0.10212 0.13042,0.13459 0.13042,0.0841 z m -0.46391,-0.62052 c -0.09,-0.118 -0.17755,-0.21455 -0.19453,-0.21455 -0.0303,0 0.0444,0.10892 0.22078,0.32183 0.16101,0.19437 0.14078,0.11171 -0.0263,-0.10728 z m -1.03171,-1.54785 c -0.0489,-0.0927 -0.13525,-0.22375 -0.19195,-0.29118 -0.0989,-0.11761 -0.0995,-0.11637 -0.0142,0.0306 0.0489,0.0843 0.12173,0.21532 0.16188,0.29118 0.0402,0.0759 0.0865,0.13793 0.10306,0.13793 0.0165,0 -0.01,-0.0759 -0.0588,-0.16858 z m -0.46601,-0.81223 c -0.0361,-0.0674 -0.0794,-0.12261 -0.0963,-0.12261 -0.0169,0 -0.001,0.0552 0.035,0.12261 0.0361,0.0674 0.0794,0.1226 0.0963,0.1226 0.0169,0 0.001,-0.0552 -0.035,-0.1226 z m -0.17629,-0.32286 c -0.0605,-0.0601 -0.0676,-0.053 -0.0343,0.0343 0.023,0.0605 0.0573,0.0945 0.0762,0.0756 0.0189,-0.0189 4e-5,-0.0683 -0.0419,-0.10992 z m -0.55218,-1.12726 c -0.0684,-0.12961 -0.12554,-0.21591 -0.12703,-0.19176 -0.004,0.0705 0.20077,0.47802 0.22726,0.45152 0.0132,-0.0132 -0.0318,-0.13014 -0.10023,-0.25976 z m -0.30616,-0.67549 c -0.0723,-0.12427 -0.0897,-0.0845 -0.0306,0.0697 0.021,0.0548 0.0511,0.0867 0.0669,0.0709 0.0158,-0.0158 -5.8e-4,-0.079 -0.0364,-0.14057 z m -0.24554,-0.55053 c -0.0684,-0.12961 -0.12555,-0.2159 -0.12704,-0.19176 -0.004,0.0705 0.20077,0.47802 0.22726,0.45152 0.0133,-0.0132 -0.0318,-0.13014 -0.10022,-0.25976 z m -0.27575,-0.61337 c -0.0519,-0.0957 -0.0954,-0.1546 -0.0968,-0.1309 -0.004,0.0729 0.13847,0.35748 0.16556,0.33039 0.014,-0.014 -0.0169,-0.10379 -0.0688,-0.19949 z m -16.20602,-0.18854 c -0.17701,-0.0124 -0.46665,-0.0124 -0.64366,0 -0.17701,0.0124 -0.0322,0.0225 0.32183,0.0225 0.35401,0 0.49884,-0.0101 0.32183,-0.0225 z m 1.65736,-0.0612 c -0.17577,-0.0123 -0.47921,-0.0125 -0.67431,-2.5e-4 -0.19509,0.0122 -0.0513,0.0223 0.3196,0.0224 0.37087,1.4e-4 0.53049,-0.01 0.35471,-0.0222 z m 1.53029,-0.0614 c -0.17701,-0.0124 -0.46665,-0.0124 -0.64366,0 -0.17701,0.0124 -0.0322,0.0225 0.32183,0.0225 0.35401,0 0.49884,-0.0101 0.32183,-0.0225 z m 1.65736,-0.0612 c -0.17577,-0.0123 -0.47921,-0.0125 -0.67431,-2.6e-4 -0.1951,0.0122 -0.0513,0.0223 0.31959,0.0224 0.37087,1.4e-4 0.5305,-0.01 0.35472,-0.0222 z m 1.50169,-0.0612 c -0.15901,-0.0126 -0.43487,-0.0127 -0.61301,-2.9e-4 -0.17813,0.0124 -0.048,0.0227 0.28913,0.0229 0.33715,1.6e-4 0.4829,-0.01 0.32388,-0.0226 z m 1.53252,-0.0613 c -0.15901,-0.0126 -0.43487,-0.0127 -0.61301,-2.9e-4 -0.17813,0.0124 -0.048,0.0227 0.28913,0.0229 0.33715,1.6e-4 0.4829,-0.01 0.32388,-0.0226 z m 7.92813,-0.36267 c -0.10178,-0.19724 -0.18637,-0.33853 -0.18799,-0.31399 -0.005,0.0684 0.32429,0.72134 0.35022,0.69541 0.0125,-0.0125 -0.0605,-0.18418 -0.16223,-0.38142 z m -6.61221,0.30146 c -0.14329,-0.0129 -0.37777,-0.0129 -0.52106,0 -0.14329,0.0129 -0.026,0.0235 0.26053,0.0235 0.28658,0 0.40382,-0.0106 0.26053,-0.0235 z m 1.28732,-0.0613 c -0.14329,-0.0129 -0.37777,-0.0129 -0.52106,0 -0.14329,0.0129 -0.026,0.0235 0.26053,0.0235 0.28658,0 0.40382,-0.0106 0.26053,-0.0235 z m 1.19537,-0.0611 c -0.12644,-0.0132 -0.33333,-0.0132 -0.45976,0 -0.12643,0.0132 -0.023,0.0241 0.22988,0.0241 0.25286,0 0.35631,-0.0108 0.22988,-0.0241 z m 1.04075,-0.0614 c -0.12719,-0.0133 -0.32029,-0.013 -0.42911,4.9e-4 -0.10882,0.0136 -0.005,0.0244 0.23124,0.0241 0.23601,-2.7e-4 0.32505,-0.0113 0.19787,-0.0246 z m 1.01283,-0.0609 c -0.10958,-0.0136 -0.28888,-0.0136 -0.39846,0 -0.10957,0.0136 -0.0199,0.0247 0.19923,0.0247 0.21915,0 0.3088,-0.0111 0.19923,-0.0247 z m 0.79691,-0.0602 c -0.0759,-0.0146 -0.19999,-0.0146 -0.27585,0 -0.0759,0.0146 -0.0138,0.0266 0.13792,0.0266 0.15172,0 0.21379,-0.012 0.13793,-0.0266 z m 0.50026,-0.0705 c 0.0178,-0.0289 -0.0357,-0.0394 -0.11899,-0.0235 -0.0833,0.0159 -0.15139,0.0395 -0.15139,0.0525 0,0.0474 0.23899,0.0219 0.27038,-0.0289 z m 0.46523,-0.56057 c -0.0361,-0.0674 -0.0794,-0.1226 -0.0963,-0.1226 -0.0169,0 -0.001,0.0552 0.035,0.1226 0.0361,0.0674 0.0794,0.12261 0.0963,0.12261 0.0169,0 0.001,-0.0552 -0.035,-0.12261 z m -0.75901,-0.28576 c -0.0519,-0.0957 -0.0954,-0.1546 -0.0967,-0.1309 -0.004,0.0729 0.13847,0.35748 0.16555,0.33039 0.014,-0.014 -0.0169,-0.10379 -0.0688,-0.19949 z m 0.51381,-0.14334 c -0.0361,-0.0674 -0.0794,-0.1226 -0.0963,-0.1226 -0.0169,0 -0.001,0.0552 0.035,0.1226 0.0361,0.0674 0.0794,0.1226 0.0963,0.1226 0.0169,0 0.001,-0.0552 -0.035,-0.1226 z m -0.20831,-0.35248 c -0.0489,-0.0927 -0.13524,-0.22375 -0.19195,-0.29118 -0.0989,-0.11762 -0.0995,-0.11637 -0.0142,0.0307 0.0489,0.0843 0.12173,0.21532 0.16188,0.29118 0.0402,0.0759 0.0865,0.13792 0.10307,0.13792 0.0165,0 -0.01,-0.0759 -0.0588,-0.16857 z m -0.45935,-0.73561 c -0.0324,-0.059 -0.10528,-0.16245 -0.16188,-0.22988 -0.0988,-0.11771 -0.0994,-0.11649 -0.0154,0.0306 0.1606,0.28121 0.17768,0.3065 0.20704,0.3065 0.0161,0 0.003,-0.0483 -0.0298,-0.10727 z m -0.30651,-0.49041 c -0.0324,-0.059 -0.10528,-0.16245 -0.16188,-0.22988 -0.0988,-0.11771 -0.0994,-0.11649 -0.0154,0.0307 0.16059,0.28121 0.17768,0.30651 0.20704,0.30651 0.0161,0 0.003,-0.0483 -0.0298,-0.10728 z m -0.83421,-0.87354 c -0.0854,-0.16858 -0.16911,-0.3065 -0.18597,-0.3065 -0.0169,0 0.0392,0.13792 0.12467,0.3065 0.0854,0.16858 0.16911,0.30651 0.18597,0.30651 0.0169,0 -0.0393,-0.13793 -0.12467,-0.30651 z m 0.39845,0.1839 c -0.0361,-0.0674 -0.0794,-0.1226 -0.0963,-0.1226 -0.0169,0 -0.001,0.0552 0.035,0.1226 0.0361,0.0674 0.0794,0.12261 0.0963,0.12261 0.0169,0 0.001,-0.0552 -0.035,-0.12261 z m -0.1839,-0.3065 c -0.0361,-0.0674 -0.0794,-0.1226 -0.0963,-0.1226 -0.0169,0 -0.001,0.0552 0.035,0.1226 0.0361,0.0674 0.0794,0.1226 0.0963,0.1226 0.0169,0 0.001,-0.0552 -0.035,-0.1226 z m -0.1839,-0.30651 c -0.0361,-0.0674 -0.0794,-0.1226 -0.0963,-0.1226 -0.0169,0 -0.001,0.0552 0.035,0.1226 0.0361,0.0674 0.0794,0.12261 0.0963,0.12261 0.0169,0 0.001,-0.0552 -0.035,-0.12261 z m -0.49041,-0.4291 c -0.0361,-0.0674 -0.0794,-0.1226 -0.0963,-0.1226 -0.0169,0 -0.001,0.0552 0.035,0.1226 0.0361,0.0674 0.0794,0.1226 0.0963,0.1226 0.0169,0 0.001,-0.0552 -0.035,-0.1226 z m 0.1839,-0.0613 c -0.0361,-0.0674 -0.0794,-0.12261 -0.0963,-0.12261 -0.0169,0 -10e-4,0.0552 0.035,0.12261 0.0361,0.0674 0.0794,0.1226 0.0963,0.1226 0.0169,0 0.001,-0.0552 -0.035,-0.1226 z m -0.21455,-0.36781 c -0.0523,-0.10115 -0.10889,-0.1839 -0.12575,-0.1839 -0.0169,0 0.0122,0.0828 0.0645,0.1839 0.0523,0.10115 0.1089,0.1839 0.12575,0.1839 0.0169,0 -0.0121,-0.0828 -0.0644,-0.1839 z m -0.1934,0.028 c -0.02,-0.052 -0.0494,-0.0815 -0.0655,-0.0654 -0.0161,0.0161 -0.011,0.0586 0.0112,0.0946 0.0604,0.0978 0.0958,0.0788 0.0543,-0.0292 z m -0.14375,-0.27321 c -0.0361,-0.0674 -0.0794,-0.1226 -0.0963,-0.1226 -0.0169,0 -0.001,0.0552 0.035,0.1226 0.0361,0.0674 0.0794,0.1226 0.0963,0.1226 0.0169,0 0.001,-0.0552 -0.035,-0.1226 z m 0.0919,-0.18391 c -0.0523,-0.10114 -0.1089,-0.1839 -0.12576,-0.1839 -0.0169,0 0.0121,0.0828 0.0645,0.1839 0.0523,0.10115 0.10889,0.18391 0.12575,0.18391 0.0169,0 -0.0122,-0.0828 -0.0645,-0.18391 z m -0.42911,-0.4291 c -0.0854,-0.16858 -0.16911,-0.30651 -0.18597,-0.30651 -0.0169,0 0.0392,0.13793 0.12467,0.30651 0.0854,0.16858 0.16911,0.3065 0.18597,0.3065 0.0169,0 -0.0392,-0.13792 -0.12467,-0.3065 z m 0.0306,-0.30651 c -0.10211,-0.20229 -0.19946,-0.3678 -0.21632,-0.3678 -0.0169,0 0.0529,0.16551 0.15502,0.3678 0.10212,0.2023 0.19946,0.36781 0.21632,0.36781 0.0169,0 -0.0529,-0.16551 -0.15502,-0.36781 z m -0.49041,-0.5517 c -0.0688,-0.13487 -0.13888,-0.24521 -0.15574,-0.24521 -0.0169,0 0.0256,0.11034 0.0944,0.24521 0.0688,0.13486 0.13889,0.2452 0.15574,0.2452 0.0169,0 -0.0256,-0.11034 -0.0944,-0.2452 z m -0.11557,-0.65286 c -0.10177,-0.19723 -0.18636,-0.33853 -0.18798,-0.31399 -0.005,0.0684 0.32429,0.72134 0.35022,0.69541 0.0125,-0.0125 -0.0605,-0.18418 -0.16224,-0.38142 z m -0.23108,0.007 c -0.02,-0.052 -0.0494,-0.0815 -0.0655,-0.0654 -0.0161,0.0161 -0.011,0.0586 0.0112,0.0946 0.0604,0.0978 0.0958,0.0788 0.0543,-0.0292 z m -0.1839,-0.3678 c -0.02,-0.052 -0.0494,-0.0814 -0.0655,-0.0654 -0.0161,0.0161 -0.011,0.0586 0.0112,0.0946 0.0604,0.0978 0.0958,0.0788 0.0543,-0.0292 z m 0.16275,-0.22724 c 0,-0.0253 -0.069,-0.046 -0.15325,-0.046 -0.0843,0 -0.15326,0.0207 -0.15326,0.046 0,0.0253 0.069,0.046 0.15326,0.046 0.0843,0 0.15325,-0.0207 0.15325,-0.046 z m -1.18415,-2.69341 c -0.0196,-0.0489 -0.0341,-0.0344 -0.037,0.037 -0.003,0.0646 0.0118,0.10083 0.0322,0.0805 0.0204,-0.0204 0.0225,-0.0733 0.005,-0.1175 z m -0.0626,-0.37163 c -0.017,-0.0421 -0.0309,-0.008 -0.0309,0.0766 0,0.0843 0.0139,0.11877 0.0309,0.0766 0.017,-0.0421 0.017,-0.11111 0,-0.15325 z m -0.0594,-0.39729 c -0.0155,-0.0596 -0.0293,-0.0257 -0.0305,0.0755 -0.001,0.10114 0.0115,0.14994 0.0283,0.10844 0.0168,-0.0415 0.0178,-0.12426 0.002,-0.1839 z m -0.10033,-1.02796 -0.0629,-0.2452 0.029,0.2452 c 0.016,0.13486 0.0342,0.35554 0.0404,0.49041 l 0.0114,0.2452 0.0224,-0.2452 c 0.0123,-0.13487 -0.006,-0.35555 -0.0404,-0.49041 z"
       id="path69" /><path
       style="opacity:1;fill:#c41f13;fill-opacity:1;fill-rule:evenodd;stroke:none;stroke-width:1.45644;stroke-dasharray:none;stroke-opacity:1"
       d="m 183.09477,366.66169 c -3.43303,-0.12175 -7.46775,-0.4685 -8.96605,-0.77054 -16.468,-3.31981 -41.03833,-14.16243 -53.6119,-23.65834 C 107.03249,332.04907 93.734351,317.81433 84.299299,303.46446 65.234988,274.46936 57.648392,239.74573 62.773452,204.9413 66.507397,179.58397 76.3223,156.54682 91.582821,137.32107 101.2525,125.13888 112.13182,114.6846 122.06318,108.03155 c 13.98226,-9.366763 32.10761,-16.551925 48.89462,-19.382563 8.87426,-1.496383 10.49514,-1.609793 22.88685,-1.601348 18.3729,0.01252 24.3539,0.8897 44.89598,6.584482 8.91013,2.470112 10.14555,2.649171 19.60331,2.841243 8.48006,0.172218 10.83917,0.04781 24.44731,-1.289201 1.81188,-0.178018 4.15258,-0.317029 5.20156,-0.308912 l 1.90724,0.01476 -1.69179,0.519507 c -1.67143,0.513257 -5.10134,2.443814 -8.9645,5.045752 -2.70802,1.82391 -3.03996,1.92475 -3.04645,0.92548 -0.0123,-1.890308 -1.40251,-2.396856 -6.40766,-2.334728 -3.52238,0.04372 -9.11707,0.496014 -7.37116,0.595907 0.52449,0.03001 0.95362,0.156518 0.95362,0.281133 0,0.124608 -0.763,1.033328 -1.69556,2.019368 -4.31285,4.56021 -5.12862,9.66739 -2.79753,17.51414 0.56396,1.89837 1.02539,3.51458 1.02539,3.59159 0,0.077 -2.61378,0.22085 -5.80841,0.31966 -6.88667,0.21301 -9.44949,0.79735 -9.44949,2.15458 0,0.89005 1.83297,3.72921 5.34701,8.28218 19.35288,25.07463 20.57528,26.91228 23.03287,34.62528 1.7082,5.36113 2.2421,9.34518 2.26727,16.91891 0.0329,9.90907 -0.9278,14.42949 -4.65291,21.89291 -3.83881,7.69125 -7.85649,12.47709 -13.63868,16.24637 -1.74138,1.13516 -4.16594,2.77204 -5.38792,3.63749 -1.22197,0.86546 -4.21237,2.58576 -6.64532,3.82289 l -4.42354,2.24934 -6.53196,0.32834 c -8.21961,0.41318 -15.00287,0.61276 -42.2493,1.24313 -25.18317,0.58264 -42.5803,1.14355 -47.41178,1.52865 -4.28737,0.34173 -6.95134,1.56224 -9.94585,4.55676 -4.78368,4.78368 -6.89301,11.05755 -6.98762,20.78361 l -0.032,3.29432 -1.04505,-2.25401 c -2.61597,-5.64223 -4.83896,-11.29793 -6.13349,-15.60467 -4.09768,-13.6326 -6.78354,-25.62164 -7.52067,-33.57057 -0.12927,-1.39404 -0.31025,-2.45942 -0.40217,-2.3675 -0.32691,0.32691 0.66075,8.10432 1.67939,13.22461 3.61337,18.16281 10.04746,37.30591 14.3358,42.65276 0.61187,0.7629 1.86001,2.55743 2.77365,3.98786 3.00135,4.69901 5.44924,7.73527 10.08041,12.50328 3.0445,3.13447 4.88218,4.39768 5.85468,4.0245 1.0918,-0.41897 0.77078,-0.97062 -8.06258,-13.85522 -4.90701,-7.15751 -5.6734,-10.19981 -4.10113,-16.28007 1.06624,-4.12334 3.81759,-9.94441 5.69713,-12.0535 1.51251,-1.69723 2.34089,-1.72441 1.13962,-0.0374 -2.20014,3.08982 -3.49675,7.91084 -3.4902,12.97725 0.006,4.98215 1.27556,8.62305 4.87465,13.98454 3.8614,5.75224 10.16509,12.42866 14.937,15.82022 3.19525,2.27097 11.42896,6.91798 17.17413,9.69288 4.80226,2.31947 5.0219,2.38908 6.2733,1.98808 1.36571,-0.43763 9.10609,-3.57323 22.53825,-9.13018 4.4353,-1.83491 8.25845,-3.32994 8.49588,-3.32231 0.6257,0.0201 -1.12777,0.91518 -4.73613,2.41752 -12.17305,5.06829 -30.36609,13.71231 -34.19062,16.24492 -2.36566,1.56654 -2.46158,2.10639 -1.05777,5.95294 0.58178,1.59409 1.05777,2.94542 1.05777,3.00295 0,0.0575 -1.36541,-1.26902 -3.03424,-2.94788 -5.05517,-5.08555 -9.18243,-6.8025 -16.3849,-6.81615 -7.73699,-0.0147 -12.97059,2.58093 -16.69362,8.27918 -1.75529,2.68654 -5.21331,9.52324 -6.19551,12.24887 -0.69185,1.91988 -0.73236,2.3419 -0.36616,3.81447 0.54053,2.17357 3.28832,7.3078 6.45379,12.05886 5.30883,7.96805 6.54645,8.908 12.02349,9.13164 5.50479,0.22477 13.61749,-1.43945 18.50292,-3.79565 1.22002,-0.5884 2.80121,-1.72064 3.57455,-2.55962 3.65506,-3.96526 5.73175,-11.62015 5.3629,-19.76812 l -0.14129,-3.12093 1.30989,2.48875 c 0.72044,1.36881 1.74545,2.97415 2.2778,3.56743 1.09403,1.21924 1.55947,1.2135 5.79411,-0.0715 8.21523,-2.49298 72.17294,-29.06588 83.32569,-34.61983 5.24987,-2.61438 5.7301,-3.30399 4.5769,-6.5725 -0.28812,-0.81662 -0.4594,-1.54922 -0.38063,-1.62799 0.0788,-0.0788 0.99454,0.92374 2.03504,2.22782 4.10578,5.14583 9.26804,9.07904 14.32906,10.91754 1.58309,0.57509 3.1024,0.78115 6.64545,0.90132 5.36245,0.18187 9.46743,-0.32419 12.29985,-1.51634 1.0918,-0.45953 2.16373,-0.83551 2.38206,-0.83551 0.21834,0 -0.54168,1.00344 -1.68894,2.22986 -2.92004,3.12153 -5.30883,6.14327 -9.61378,12.16111 -5.40814,7.55997 -6.86213,9.26537 -14.73436,17.28217 -7.33382,7.46849 -14.81087,14.46556 -18.07412,16.91386 -9.38257,7.03942 -31.34924,16.88897 -45.21148,20.27219 -1.90724,0.46548 -5.26224,0.99778 -7.45556,1.18289 -4.99986,0.42196 -23.1133,0.5976 -31.38272,0.30431 z m -67.60115,-163.9744 c 0.84579,-1.81187 1.29209,-2.98222 0.99177,-2.60078 -1.44866,1.84006 -3.97773,8.1515 -3.93377,9.81694 0.015,0.56657 0.29552,-0.0203 0.71442,-1.49445 0.37938,-1.33506 1.38179,-3.90983 2.22758,-5.72171 z m 12.46465,-6.23528 c 3.24231,-0.005 15.96011,-0.23866 28.26179,-0.51913 12.30168,-0.28048 32.11961,-0.67481 44.03984,-0.8763 22.4854,-0.38009 26.40079,-0.59311 29.27869,-1.59294 2.13587,-0.74204 4.16544,-2.7421 5.67362,-5.59114 2.14331,-4.04882 1.80051,-7.27706 -1.26575,-11.91976 -2.4742,-3.74624 -5.65963,-7.41936 -23.4084,-26.99219 -1.30843,-1.44289 -3.00311,-3.53745 -3.76595,-4.65456 l -1.387,-2.03111 -12.35886,0.1927 c -18.54675,0.28917 -22.73284,1.12948 -34.12977,6.8512 -12.52076,6.28592 -23.66226,16.46473 -31.44413,28.72718 -2.45,3.86063 -6.27039,11.85463 -7.63318,15.97207 -0.5997,1.81188 -1.30384,3.62227 -1.56476,4.02309 -0.40599,0.62367 -0.16555,0.56229 1.66718,-0.42558 l 2.14159,-1.15436 z m 74.9255,-82.80383 c -0.16329,-0.16328 -1.53431,3.43063 -1.75502,4.60052 -0.10795,0.57217 0.26658,-0.20507 0.83228,-1.7272 0.56569,-1.52213 0.98093,-2.81512 0.92274,-2.87332 z m 1.01722,-1.46796 c 0.29588,-0.57217 0.45994,-1.04031 0.36458,-1.04031 -0.0954,0 -0.41547,0.46814 -0.71135,1.04031 -0.29588,0.57217 -0.45994,1.04031 -0.36458,1.04031 0.0954,0 0.41547,-0.46814 0.71135,-1.04031 z m 20.80622,-13.890622 4.50802,-0.193192 -4.6663,-0.06688 -4.66631,-0.06689 -3.22272,1.92317 c -1.7725,1.057744 -3.22273,1.982214 -3.22273,2.054374 0,0.0722 1.52146,-0.67623 3.38102,-1.66309 l 3.38101,-1.794298 z m 30.86257,1.701747 c 0.76289,-0.03126 -0.20614,-0.158569 -2.15341,-0.2829 -2.62833,-0.167817 -3.71049,-0.379915 -4.20037,-0.823254 -0.39099,-0.353835 -1.42116,-0.656062 -2.528,-0.741651 -1.02746,-0.07945 -1.47799,-0.07266 -1.00118,0.0151 2.37796,0.437643 3.43837,0.899129 3.6583,1.592078 0.21561,0.679322 0.39957,0.716692 2.53503,0.514972 1.2664,-0.11963 2.92673,-0.24308 3.68963,-0.274342 z"
       id="path70" /><path
       style="opacity:1;fill:#c41f13;fill-opacity:1;fill-rule:evenodd;stroke:none;stroke-width:1.45644;stroke-dasharray:none;stroke-opacity:1"
       d="m 182.57461,366.66469 c -6.25181,-0.23861 -9.9797,-0.87879 -17.00383,-2.92005 -9.96871,-2.89697 -23.61643,-8.65034 -33.62465,-14.1749 -16.93354,-9.34737 -35.526953,-27.37729 -47.945443,-46.49242 -14.991146,-23.07508 -22.795713,-49.3659 -22.795713,-76.79068 0,-32.68947 10.939841,-64.73099 30.390995,-89.01169 9.252361,-11.54965 19.109331,-21.19243 28.733361,-28.109 10.94625,-7.86683 28.27918,-15.516628 43.09481,-19.019665 9.92328,-2.346282 18.41899,-3.277449 29.91773,-3.279117 16.59856,-0.0024 24.99868,1.167695 42.28861,5.890637 13.04667,3.563847 13.61019,3.643886 25.48762,3.620065 7.69211,-0.01543 11.82776,-0.198374 17.59109,-0.778169 4.14411,-0.416899 8.35737,-0.747056 9.3628,-0.733681 l 1.82806,0.02432 -1.75949,0.600491 c -1.93992,0.662068 -3.74014,1.65901 -8.03291,4.448549 -3.70529,2.40777 -3.90503,2.47833 -3.90503,1.37944 0,-1.27219 -0.78096,-1.86835 -2.81374,-2.147929 -1.76816,-0.243184 -11.79955,0.170725 -10.62362,0.438345 0.33377,0.07596 0.60685,0.22182 0.60685,0.324137 0,0.102317 -0.76878,1.027187 -1.70839,2.055277 -3.32576,3.63892 -4.60919,7.8157 -3.8492,12.52686 0.23244,1.44083 0.79774,3.87301 1.25624,5.40486 0.45851,1.53185 0.83365,2.89087 0.83365,3.02005 0,0.12917 -2.61378,0.3254 -5.80841,0.43606 -8.68841,0.30097 -10.36969,1.02963 -8.78944,3.80931 0.79425,1.39711 5.73847,8.00484 14.20017,18.97793 8.84893,11.47523 11.17769,15.23667 13.2035,21.32638 2.04195,6.1382 2.56035,9.80234 2.57574,18.20544 0.0183,9.99591 -0.82174,13.85919 -4.71267,21.67315 -3.9464,7.92538 -7.77519,12.35354 -14.46701,16.73173 -2.20232,1.44089 -4.31631,2.89619 -4.69776,3.234 -0.38144,0.3378 -2.91574,1.77798 -5.63176,3.20038 -4.43675,2.32357 -5.19386,2.60796 -7.45556,2.8005 -3.60676,0.30704 -20.64521,0.83565 -46.03703,1.42827 -27.33896,0.63806 -43.52267,1.16401 -47.9934,1.55971 -2.71765,0.24054 -3.87688,0.52221 -5.56067,1.35114 -4.10657,2.02165 -8.4971,7.51183 -9.87402,12.34703 -0.6955,2.44233 -1.40465,8.22134 -1.4255,11.61681 -0.0241,3.92171 0.14687,4.13083 -3.40195,-4.16125 -3.22517,-7.53581 -6.52134,-18.5775 -9.26487,-31.03595 -0.63,-2.86085 -1.15694,-4.93392 -1.17096,-4.60682 -0.037,0.86341 1.82054,9.39888 3.22887,14.83655 3.63027,14.01673 8.04722,25.61719 11.60027,30.4664 0.92825,1.26687 2.57808,3.65397 3.6663,5.30467 3.96479,6.01407 11.82483,14.47845 13.93698,15.00857 2.35577,0.59126 1.62431,-1.20062 -3.42217,-8.38347 -6.74924,-9.60643 -8.20566,-12.32185 -8.48669,-15.82297 -0.3839,-4.7825 2.95243,-14.00408 6.51231,-17.99996 1.67368,-1.87867 2.05087,-1.52228 0.69683,0.6584 -3.18846,5.13501 -4.06703,13.7321 -1.97121,19.28905 2.83016,7.50402 12.01484,18.43337 19.81331,23.57693 4.41758,2.91365 13.88697,8.13857 18.09334,9.98334 l 3.24575,1.42348 5.62866,-2.25339 c 3.09577,-1.23936 10.20114,-4.14675 15.78972,-6.46087 5.58857,-2.31412 10.33751,-4.14866 10.5532,-4.07677 0.21568,0.0719 -1.15783,0.80404 -3.05226,1.62698 -24.37799,10.58988 -36.55878,16.6262 -37.64467,18.65521 -0.40279,0.75261 -0.33788,1.19808 0.53652,3.68189 0.54712,1.55413 1.0747,3.05976 1.1724,3.34585 0.0977,0.28608 -1.24405,-0.9001 -2.98169,-2.63597 -5.07383,-5.06867 -9.24513,-6.81331 -16.36914,-6.84639 -10.48475,-0.0487 -15.68917,4.22726 -21.74978,17.86958 -2.10383,4.73569 -2.10077,5.79748 0.0291,10.0817 2.00006,4.02319 7.18934,11.96975 9.42796,14.43742 2.06946,2.2812 3.21997,2.79201 6.86633,3.04851 7.86721,0.55341 19.72744,-2.83897 22.93695,-6.56065 3.36834,-3.90585 5.02386,-9.72581 5.03868,-17.71337 l 0.009,-4.91881 1.35631,2.55539 c 2.03791,3.83957 2.58456,4.31699 4.69393,4.09958 2.40839,-0.24824 5.59879,-1.37243 18.37883,-6.47611 30.89942,-12.33962 65.8095,-27.24839 70.67188,-30.18127 2.68236,-1.61794 3.06293,-2.46632 2.19836,-4.90058 -0.34098,-0.96005 -0.54759,-1.8179 -0.45915,-1.90634 0.0884,-0.0884 1.11382,1.00549 2.27862,2.43096 4.06465,4.9743 9.37213,8.99102 14.08584,10.6602 4.36359,1.5452 13.96727,1.24696 18.83404,-0.58489 1.22419,-0.46079 2.37292,-0.83779 2.55273,-0.83779 0.17981,0 -0.89459,1.36541 -2.38755,3.03424 -3.1081,3.47423 -6.35598,7.62319 -9.29741,11.87688 -4.15981,6.0156 -7.46933,9.77253 -16.96432,19.25766 -10.72331,10.71217 -14.64172,14.1352 -20.01318,17.48299 -10.1498,6.32593 -27.82764,13.89433 -39.3753,16.85773 -2.58368,0.66303 -6.28343,1.32584 -8.49587,1.52204 -4.77998,0.42389 -24.34069,0.61709 -32.18091,0.31785 z M 113.46084,219.77233 c -0.0879,-0.33739 -0.16564,-0.1453 -0.1727,0.42687 -0.007,0.57217 0.0649,0.84822 0.15985,0.61344 0.095,-0.23477 0.10077,-0.70291 0.0129,-1.04031 z m -0.34804,-2.43399 c -0.0872,-0.33376 -0.15859,-0.0607 -0.15859,0.60685 0,0.66753 0.0714,0.94061 0.15859,0.60685 0.0872,-0.33377 0.0872,-0.87993 0,-1.2137 z m -0.34055,-2.59673 c -0.0829,-0.43135 -0.15396,-0.16009 -0.15781,0.6028 -0.004,0.7629 0.064,1.11582 0.15081,0.78428 0.0868,-0.33154 0.0899,-0.95573 0.007,-1.38708 z m -0.35515,-2.75654 c -0.11069,-0.27663 -0.19286,-0.19446 -0.2095,0.20951 -0.0151,0.36555 0.0669,0.57037 0.18213,0.45514 0.11523,-0.11523 0.12754,-0.41432 0.0274,-0.66465 z m 3.34413,-9.99132 c 0.6561,-1.37071 0.73148,-1.69138 0.26798,-1.13991 -0.76203,0.90665 -2.97706,6.33712 -3.29383,8.07532 -0.12165,0.66753 0.30399,-0.19072 0.94587,-1.90724 0.64189,-1.71651 1.57787,-3.97919 2.07998,-5.02817 z m 12.27385,-5.55302 c 3.20006,-0.003 15.49318,-0.22865 27.31805,-0.50239 11.82487,-0.27374 27.97571,-0.59319 35.89074,-0.70989 23.24011,-0.34266 34.55311,-0.76885 36.93105,-1.39129 2.76482,-0.7237 4.40335,-1.91608 6.07688,-4.42221 3.31019,-4.95704 3.07133,-8.78326 -0.89532,-14.34202 -2.22524,-3.1184 -4.21437,-5.42436 -15.21298,-17.63616 -5.32656,-5.91409 -10.39808,-11.7429 -11.27004,-12.9529 l -1.58539,-2.19999 -11.61681,0.18851 c -16.10581,0.26136 -20.47223,0.8315 -27.56824,3.59974 -17.73195,6.91744 -33.16177,20.78832 -41.76222,37.54279 -1.75601,3.42089 -4.52551,9.84468 -4.53986,10.53013 -0.005,0.21622 -0.37388,1.28217 -0.82078,2.36876 l -0.81254,1.97563 2.02458,-1.02201 c 2.00019,-1.00969 2.09468,-1.02206 7.84288,-1.0267 z m 74.64159,-82.0065 c 0,-0.19073 -0.15126,-0.1127 -0.33615,0.17338 -0.18488,0.28609 -0.33615,0.67621 -0.33615,0.86693 0,0.19072 0.15127,0.1127 0.33615,-0.17339 0.18489,-0.28608 0.33615,-0.6762 0.33615,-0.86692 z m 20.99023,-16.147253 3.46771,-0.198969 -3.60222,-0.06269 -3.60221,-0.06269 -2.72635,1.609916 c -1.49949,0.885446 -2.72634,1.667426 -2.72634,1.737716 0,0.0703 1.28738,-0.53642 2.86085,-1.348254 2.65093,-1.367753 3.11531,-1.490666 6.32856,-1.675036 z m 31.7006,1.540725 c 0.0795,-0.07217 -0.93715,-0.131215 -2.25915,-0.131215 -1.76423,0 -2.75807,-0.189971 -3.73607,-0.714146 -0.73284,-0.392781 -1.41974,-0.626851 -1.52644,-0.520156 -0.10669,0.106695 -0.0109,0.193991 0.21287,0.193991 0.22377,0 0.75465,0.399989 1.17972,0.888865 0.74243,0.853869 0.87544,0.879519 3.37872,0.651369 1.43322,-0.13062 2.67088,-0.29654 2.75035,-0.368708 z m -8.55368,-1.747956 c -0.2384,-0.0962 -0.62852,-0.0962 -0.86692,0 -0.23841,0.0962 -0.0434,0.174906 0.43346,0.174906 0.47681,0 0.67187,-0.07871 0.43346,-0.174906 z"
       id="path71" /><path
       style="opacity:1;fill:#c41f13;fill-opacity:1;fill-rule:evenodd;stroke:none;stroke-width:1.45644;stroke-dasharray:none;stroke-opacity:1"
       d="m 182.57461,366.7016 c -3.14694,-0.13683 -6.73601,-0.43716 -7.97572,-0.6674 -10.30897,-1.91456 -25.55534,-7.59748 -39.01167,-14.54118 -11.78056,-6.07897 -19.95812,-12.2079 -31.0514,-23.27245 -24.356957,-24.29389 -38.425917,-52.78031 -42.488762,-86.03001 -0.74739,-6.11653 -1.022592,-19.80434 -0.529301,-26.32599 2.233517,-29.52862 12.720869,-56.92576 30.132046,-78.71688 8.764477,-10.96927 19.187407,-21.1992 28.159367,-27.63796 13.95619,-10.015708 33.5753,-17.974581 51.84217,-21.030781 8.30544,-1.389569 13.92754,-1.725291 25.40059,-1.516789 15.27373,0.277573 22.12368,1.289489 38.02162,5.616792 9.97163,2.714204 12.36058,3.224444 17.35447,3.706622 5.01554,0.484269 17.10663,0.140649 26.20199,-0.744642 3.90983,-0.380562 8.04507,-0.682171 9.18941,-0.670243 l 2.08063,0.02169 -1.79414,0.63811 c -2.04419,0.727046 -3.84005,1.729904 -8.21346,4.586631 -1.68971,1.10372 -3.21116,2.00676 -3.38101,2.00676 -0.16986,0 -0.30882,-0.27737 -0.30882,-0.61638 0,-1.28169 -0.95395,-2.056975 -2.83863,-2.306986 -2.33284,-0.309462 -10.38781,0.135886 -10.12579,0.559839 0.10797,0.17471 -0.49183,1.053337 -1.3329,1.952507 -2.19574,2.34742 -3.33367,4.48118 -3.94388,7.39526 -0.62333,2.97674 -0.33375,5.8236 1.08666,10.68324 0.47098,1.61135 0.85633,3.03037 0.85633,3.15336 0,0.12299 -2.53576,0.32363 -5.63502,0.44586 -6.03856,0.23816 -8.80822,0.73901 -9.41004,1.70165 -0.53624,0.85776 0.20871,2.09638 5.2313,8.69806 19.692,25.88308 20.33679,26.84263 22.5895,33.61687 2.07401,6.23684 2.59039,9.86097 2.60582,18.28838 0.0185,10.0995 -0.82239,13.905 -4.85882,21.98907 -3.83422,7.67911 -7.64644,12.04901 -14.32086,16.41581 -2.20232,1.44089 -4.32574,2.90751 -4.71872,3.25915 -0.39298,0.35165 -2.96775,1.81126 -5.72171,3.24359 l -5.00721,2.60423 -6.41525,0.32446 c -8.23507,0.4165 -15.0688,0.62013 -41.61245,1.24001 -27.77904,0.64873 -43.2523,1.1509 -47.94017,1.55587 -4.97435,0.42972 -6.84268,1.30574 -10.3739,4.86415 -4.6706,4.70656 -6.34845,9.45329 -6.78275,19.18882 -0.23225,5.20623 -0.0142,5.35885 -3.26519,-2.2856 -1.19375,-2.80699 -2.2289,-5.04517 -2.30034,-4.97372 -0.0714,0.0714 0.80281,2.40789 1.9428,5.19212 1.67721,4.09629 2.75135,6.07093 5.62935,10.34866 6.03484,8.96992 11.63853,15.60356 15.14023,17.92299 3.58494,2.37457 3.4194,0.6437 -0.48721,-5.09422 -1.65564,-2.43177 -4.02147,-5.90383 -5.25739,-7.71571 -1.23593,-1.81187 -2.80719,-4.46467 -3.49169,-5.89509 -1.16538,-2.43535 -1.24339,-2.81033 -1.22626,-5.8951 0.0154,-2.77831 0.19372,-3.80513 1.13833,-6.55549 1.46174,-4.25606 3.90898,-8.96008 5.42677,-10.43117 1.53843,-1.49111 1.95376,-1.12247 0.72806,0.64622 -2.70902,3.90911 -3.98339,11.61043 -2.8253,17.07396 1.43852,6.78652 9.79343,17.97111 18.294,24.48988 3.53611,2.71171 13.28131,8.21185 20.61519,11.6351 l 2.81623,1.31454 4.46246,-1.77961 c 2.45435,-0.97878 9.5564,-3.87201 15.78233,-6.4294 6.22593,-2.55738 11.53151,-4.64289 11.79019,-4.63446 0.70459,0.023 -1.66365,1.19715 -7.30209,3.62044 -13.61468,5.85132 -27.06516,12.27242 -30.81144,14.70902 -3.01352,1.96 -3.12679,2.33024 -1.83369,5.99387 0.58251,1.65038 1.05911,3.11477 1.05911,3.25421 0,0.13943 -1.52145,-1.21349 -3.38101,-3.00649 -5.29625,-5.10669 -8.84005,-6.55432 -16.045,-6.55432 -8.91307,0 -13.70553,2.87759 -18.24383,10.95435 -3.15607,5.61683 -4.74348,9.36446 -4.90745,11.58572 -0.12953,1.75477 0.0125,2.21219 1.77695,5.72172 2.09487,4.16681 6.32676,10.71101 8.83414,13.66114 2.39089,2.81307 3.77491,3.31832 9.07935,3.31452 6.74736,-0.005 14.78293,-2.06023 18.99943,-4.85984 4.46756,-2.96629 7.00297,-10.08406 7.01323,-19.68859 l 0.005,-4.5642 1.41169,2.60078 c 1.86905,3.44338 2.56889,4.16124 4.05671,4.16124 2.94086,0 22.32403,-7.61445 60.92837,-23.93502 22.72106,-9.60566 28.94549,-12.52033 30.67187,-14.36246 0.81273,-0.86723 0.82988,-0.97767 0.39494,-2.54424 -0.84039,-3.02696 -0.80481,-3.07111 0.90051,-1.11749 4.5331,5.19312 8.07028,8.1621 12.15345,10.20117 3.24166,1.61884 4.54354,1.935 8.9351,2.16991 4.55317,0.24355 9.06077,-0.28909 12.44103,-1.47008 1.32969,-0.46456 2.563,-0.84466 2.74068,-0.84466 0.17768,0 -0.75967,1.20936 -2.08301,2.68747 -3.20085,3.57522 -5.96745,7.10647 -9.91742,12.65844 -4.64977,6.5356 -8.69471,11.07847 -18.1386,20.37144 -8.88569,8.74368 -12.64505,12.06527 -16.80026,14.8439 -11.01392,7.36512 -33.31607,16.69133 -45.25923,18.9263 -1.54437,0.289 -4.58728,0.60934 -6.76202,0.71186 -7.11521,0.33542 -23.94439,0.44101 -29.78847,0.18689 z M 120.87226,249.47572 c -0.55598,-1.60709 -1.02263,-2.76646 -1.03699,-2.57638 -0.0384,0.50839 1.75603,5.7902 1.91362,5.63261 0.0738,-0.0738 -0.32064,-1.44914 -0.87663,-3.05623 z m -2.39288,-8.16398 c -0.74409,-2.64789 -1.71977,-6.35024 -2.16817,-8.22745 -0.4484,-1.87721 -0.86626,-3.26014 -0.92858,-3.07318 -0.20716,0.62148 4.02079,16.54382 4.31489,16.24973 0.0741,-0.0741 -0.47404,-2.30122 -1.21814,-4.9491 z m -3.28811,-12.68169 c -0.1107,-0.27663 -0.19287,-0.19446 -0.20951,0.20951 -0.0151,0.36555 0.0669,0.57037 0.18213,0.45514 0.11523,-0.11523 0.12755,-0.41432 0.0274,-0.66465 z m -0.354,-1.75552 c -0.0962,-0.23841 -0.1749,-0.0434 -0.1749,0.43346 0,0.47681 0.0787,0.67187 0.1749,0.43346 0.0962,-0.2384 0.0962,-0.62852 0,-0.86692 z m -0.33954,-1.36541 c -0.1107,-0.27663 -0.19287,-0.19446 -0.20951,0.20951 -0.0151,0.36555 0.0669,0.57036 0.18213,0.45513 0.11523,-0.11522 0.12755,-0.41431 0.0274,-0.66464 z m -0.354,-1.75553 c -0.0962,-0.2384 -0.17491,-0.0433 -0.17491,0.43347 0,0.47681 0.0787,0.67186 0.17491,0.43346 0.0962,-0.2384 0.0962,-0.62852 0,-0.86693 z m -0.68632,-3.7928 c -0.11069,-0.27663 -0.19286,-0.19446 -0.2095,0.20951 -0.0151,0.36555 0.0669,0.57037 0.18213,0.45514 0.11523,-0.11523 0.12755,-0.41432 0.0274,-0.66465 z m -0.34677,-2.08062 c -0.11069,-0.27663 -0.19286,-0.19446 -0.2095,0.20951 -0.0151,0.36555 0.0669,0.57036 0.18213,0.45513 0.11523,-0.11522 0.12755,-0.41431 0.0274,-0.66464 z m 1.28835,-12.73716 c 0.49556,-1.22413 0.84451,-2.28219 0.77545,-2.35126 -0.13798,-0.13797 -1.37698,2.67965 -1.7839,4.05679 -0.43497,1.47205 0.0631,0.62979 1.00845,-1.70553 z m 6.10372,-7.83066 c 1.59501,-0.80825 2.05776,-0.86701 6.83719,-0.86818 2.81951,-7e-4 15.1914,-0.23002 27.49308,-0.50961 12.30168,-0.27959 31.96356,-0.67239 43.69307,-0.87288 24.46116,-0.41811 28.80204,-0.67738 31.36535,-1.87335 0.96317,-0.44939 2.12075,-1.17201 2.57241,-1.60582 1.51925,-1.45922 3.46943,-4.87152 3.86036,-6.75461 0.48056,-2.31488 0.21318,-3.90317 -1.12162,-6.66265 -1.66622,-3.44462 -5.19093,-7.62503 -23.61402,-28.00695 -1.89299,-2.09426 -4.08501,-4.72636 -4.87113,-5.84911 l -1.42933,-2.04136 -11.27004,0.22408 c -19.36789,0.38508 -23.06079,1.06932 -33.81011,6.26449 -18.44807,8.91598 -33.62808,25.86596 -40.2056,44.89351 -0.6304,1.82362 -1.26054,3.58875 -1.40031,3.92252 -0.33385,0.79722 -0.13101,0.76947 1.9007,-0.26008 z m 102.29727,-99.032204 2.60077,-0.202645 -2.71353,-0.05743 c -2.60347,-0.0551 -2.81095,4.38e-4 -5.11487,1.369169 -1.32073,0.78463 -2.40132,1.49101 -2.40132,1.56974 0,0.0787 1.13134,-0.4462 2.51408,-1.166517 2.02241,-1.053536 3.02272,-1.349301 5.11487,-1.512314 z m 32.22075,1.54158 c 0.0795,-0.06888 -0.85913,-0.125239 -2.08576,-0.125239 -1.58919,0 -2.61325,-0.205274 -3.56269,-0.714146 -0.73284,-0.392781 -1.41974,-0.626851 -1.52644,-0.520156 -0.10669,0.106695 -0.0109,0.193991 0.21287,0.193991 0.22377,0 0.74483,0.388705 1.15791,0.863789 0.70868,0.815045 0.88955,0.851465 3.20534,0.645395 1.34985,-0.12012 2.5193,-0.274752 2.59877,-0.343634 z"
       id="path72" /><path
       style="opacity:1;fill:#c41f13;fill-opacity:1;fill-rule:evenodd;stroke:none;stroke-width:1.45644;stroke-dasharray:none;stroke-opacity:1"
       d="m 182.05445,366.7092 c -7.25972,-0.34567 -11.57218,-1.24699 -20.92878,-4.37422 -10.99682,-3.67544 -24.13813,-9.61596 -32.7078,-14.78555 C 111.45852,337.31882 92.967259,318.21245 81.341436,298.907 70.925566,281.61077 64.581723,263.0043 62.013794,242.21912 c -0.971968,-7.86724 -0.885936,-25.92675 0.160237,-33.63673 2.916619,-21.4946 9.362991,-40.45468 19.359673,-56.9407 10.179343,-16.78726 26.475586,-34.32242 40.696676,-43.79065 13.30092,-8.855594 30.35144,-15.78246 46.47341,-18.880078 9.12588,-1.753413 11.32089,-1.923811 24.79409,-1.924757 19.4028,-0.0014 22.99067,0.53353 47.68093,7.108477 7.60073,2.024053 9.38923,2.225969 19.59252,2.211927 6.90707,-0.0095 11.42039,-0.211176 17.20763,-0.768896 4.31465,-0.415806 8.76198,-0.745016 9.88295,-0.731577 l 2.03814,0.02443 -1.21741,0.448838 c -2.05895,0.759104 -5.21937,2.469323 -8.64083,4.675866 -1.79828,1.15974 -3.37825,2.10861 -3.51105,2.10861 -0.1328,0 -0.33338,-0.45965 -0.44574,-1.02145 -0.11236,-0.5618 -0.52382,-1.192464 -0.91435,-1.401472 -1.23031,-0.658441 -11.79856,-0.634574 -11.79856,0.02665 0,0.20784 -0.75789,1.228222 -1.6842,2.267522 -4.26339,4.78342 -4.97583,9.58264 -2.62617,17.6908 0.46347,1.59934 0.84267,3.03737 0.84267,3.19564 0,0.15827 -2.55485,0.39248 -5.67745,0.52046 -5.70425,0.2338 -9.10137,0.8604 -9.43932,1.74109 -0.33611,0.87588 0.60743,2.37018 5.9797,9.47016 18.92875,25.01623 19.41408,25.72877 21.50242,31.56878 1.69363,4.73623 2.44945,8.21691 2.91953,13.445 0.42193,4.69245 0.24317,11.77795 -0.39805,15.77805 -0.82232,5.12982 -4.32377,13.26517 -8.01065,18.61213 -3.33508,4.83676 -5.66914,6.8308 -16.23898,13.87336 -0.85826,0.57185 -3.35501,1.98223 -5.54833,3.13418 -4.71318,2.4754 -4.06091,2.37685 -18.89899,2.85528 -9.7142,0.31321 -14.29613,0.43748 -32.94318,0.8935 -38.26667,0.93582 -49.30537,1.37927 -52.03563,2.09041 -4.87902,1.27083 -9.88452,6.47938 -11.92426,12.40799 -0.86472,2.51335 -1.43919,6.38118 -1.70797,11.49937 l -0.21852,4.16125 -2.408,-5.45213 c -2.65336,-6.00766 -3.45348,-7.20727 -1.20713,-1.80983 1.99454,4.79239 2.84732,6.39293 5.62245,10.5524 6.10618,9.15219 13.50854,17.72899 16.31246,18.90054 1.54909,0.64725 1.61952,0.64685 1.61952,-0.009 0,-0.97994 -1.66659,-3.76152 -5.70671,-9.52466 -2.20609,-3.14694 -4.75045,-7.19004 -5.65413,-8.98466 -1.62596,-3.229 -1.64286,-3.29753 -1.62476,-6.58863 0.0155,-2.81382 0.19068,-3.82765 1.13833,-6.58687 1.46174,-4.25606 3.90898,-8.96008 5.42677,-10.43117 1.61399,-1.56434 1.90211,-1.11292 0.59699,0.93534 -1.50944,2.36893 -2.46521,5.51196 -2.92364,9.61433 -0.53071,4.74919 0.0897,8.10135 2.31441,12.50547 3.43759,6.80513 11.40294,15.87366 17.70278,20.15455 4.19706,2.852 10.33347,6.30371 16.7023,9.39497 l 5.25887,2.55252 5.49101,-2.21804 c 3.02005,-1.21993 10.11754,-4.11259 15.77219,-6.42815 5.65466,-2.31555 10.4921,-4.20319 10.74988,-4.19476 0.75449,0.0247 -1.56569,1.13847 -10.70178,5.13738 -13.77667,6.03011 -25.15232,11.58383 -28.36392,13.84757 -1.33441,0.94058 -1.55789,1.27028 -1.55789,2.29829 0,0.66009 0.39011,2.28167 0.86692,3.60349 0.47681,1.32183 0.86693,2.52972 0.86693,2.6842 0,0.15448 -1.36541,-1.04201 -3.03424,-2.65886 -5.31828,-5.15265 -8.41262,-6.55029 -15.09474,-6.81794 -6.85815,-0.2747 -11.04839,1.04025 -14.8402,4.65702 -2.48335,2.36872 -4.37371,5.3062 -7.25839,11.27898 -1.50581,3.11781 -2.18091,4.95356 -2.32106,6.31149 -0.18439,1.78658 -0.08,2.15422 1.55808,5.48636 3.09393,6.29365 8.81472,14.53884 11.16812,16.09625 5.01732,3.3203 22.68501,0.10614 27.66415,-5.03274 3.20869,-3.31165 4.91741,-8.95481 5.18391,-17.12027 l 0.17844,-5.46699 1.52317,2.69282 c 1.98403,3.5076 2.62638,4.03853 4.56461,3.77286 3.35905,-0.4604 18.65482,-6.43625 50.69943,-19.80758 25.52422,-10.65055 38.60779,-16.61783 40.19635,-18.33314 l 0.8379,-0.90477 -0.59154,-2.12765 c -0.32535,-1.17021 -0.52445,-2.19475 -0.44245,-2.27675 0.082,-0.082 1.25538,1.1472 2.60751,2.73155 4.63474,5.43076 9.97495,9.24922 14.78273,10.57023 4.49173,1.23418 12.70537,0.88063 17.51055,-0.75371 1.40262,-0.47707 2.69584,-0.86739 2.87382,-0.86739 0.17798,0 -0.48067,0.89727 -1.46369,1.99393 -2.94074,3.28074 -6.63621,7.96185 -10.06052,12.74381 -4.89159,6.83099 -6.52177,8.73239 -14.2351,16.60346 -8.55336,8.72828 -15.48964,15.17502 -19.24576,17.88745 -7.57176,5.46786 -22.29541,12.54922 -35.26371,16.96015 -6.46933,2.20043 -11.31831,3.38003 -15.71154,3.82211 -4.76767,0.47978 -26.10233,0.72522 -33.28996,0.38299 z M 121.22568,250.50526 c -0.18273,-0.45682 -0.34213,-0.64828 -0.35422,-0.42548 -0.0294,0.54118 0.37459,1.56793 0.54847,1.39405 0.0759,-0.0759 -0.0115,-0.51175 -0.19425,-0.96857 z m -1.96144,-6.35414 c -0.12754,-0.50819 -0.29878,-0.85711 -0.38052,-0.77537 -0.0817,0.0817 -0.0443,0.56441 0.0833,1.07261 0.12755,0.50819 0.29879,0.85711 0.38053,0.77537 0.0817,-0.0817 0.0443,-0.56441 -0.0833,-1.07261 z m -0.60527,-1.99702 c -0.1107,-0.27663 -0.19287,-0.19446 -0.2095,0.20951 -0.0151,0.36555 0.0669,0.57036 0.18213,0.45513 0.11522,-0.11523 0.12754,-0.41432 0.0274,-0.66464 z m -0.43504,-1.81745 c -0.12755,-0.5082 -0.29878,-0.85712 -0.38052,-0.77538 -0.0817,0.0817 -0.0443,0.56442 0.0833,1.07261 0.12755,0.5082 0.29879,0.85712 0.38052,0.77538 0.0817,-0.0817 0.0443,-0.56441 -0.0833,-1.07261 z m -0.69354,-2.42739 c -0.12755,-0.5082 -0.29878,-0.85712 -0.38052,-0.77538 -0.0817,0.0817 -0.0443,0.56441 0.0833,1.07261 0.12755,0.50819 0.29879,0.85711 0.38052,0.77538 0.0817,-0.0817 0.0443,-0.56442 -0.0833,-1.07261 z m -0.60527,-1.99703 c -0.1107,-0.27663 -0.19287,-0.19446 -0.20951,0.20951 -0.0151,0.36555 0.0669,0.57036 0.18213,0.45514 0.11523,-0.11523 0.12755,-0.41432 0.0274,-0.66465 z m -0.34677,-1.38708 c -0.1107,-0.27663 -0.19287,-0.19446 -0.20951,0.20951 -0.0151,0.36555 0.0669,0.57036 0.18213,0.45513 0.11523,-0.11522 0.12755,-0.41431 0.0274,-0.66464 z m -0.34677,-1.38708 c -0.1107,-0.27663 -0.19287,-0.19446 -0.20951,0.20951 -0.0151,0.36555 0.0669,0.57036 0.18213,0.45513 0.11523,-0.11523 0.12755,-0.41432 0.0274,-0.66464 z m -0.354,-1.75553 c -0.0962,-0.2384 -0.1749,-0.0433 -0.1749,0.43347 0,0.4768 0.0787,0.67186 0.1749,0.43346 0.0962,-0.23841 0.0962,-0.62852 0,-0.86693 z m -1.62736,-26.09447 c 0,-0.19072 -0.15126,-0.1127 -0.33615,0.17339 -0.18488,0.28608 -0.33615,0.6762 -0.33615,0.86692 0,0.19073 0.15127,0.1127 0.33615,-0.17338 0.18489,-0.28609 0.33615,-0.67621 0.33615,-0.86693 z m 0.69354,-1.73385 c 0,-0.19072 -0.15126,-0.1127 -0.33615,0.17338 -0.18488,0.28609 -0.33614,0.67621 -0.33614,0.86693 0,0.19072 0.15126,0.1127 0.33614,-0.17339 0.18489,-0.28608 0.33615,-0.6762 0.33615,-0.86692 z m 6.94603,-6.7861 c 0.78963,-0.26311 27.35307,-0.85924 76.28949,-1.71208 30.98071,-0.53992 31.68974,-0.62693 34.90864,-4.28379 3.47973,-3.95319 4.22935,-7.94867 2.27488,-12.12526 -1.7754,-3.79395 -3.1256,-5.44874 -17.72482,-21.72341 -5.22314,-5.82256 -10.13032,-11.48374 -10.90484,-12.58041 l -1.40821,-1.99392 -4.17968,0.0102 c -8.40669,0.0206 -22.64172,0.67975 -25.73895,1.19187 -4.04364,0.66861 -7.76542,1.84637 -12.49748,3.95484 -20.03938,8.92896 -35.87151,26.05238 -43.03298,46.54282 -0.56064,1.60411 -1.13793,3.20045 -1.28286,3.54742 -0.25246,0.60438 -0.20699,0.6063 1.08319,0.0457 0.74068,-0.32183 1.73681,-0.71514 2.21362,-0.87401 z m 100.04326,-98.467786 2.08062,-0.242806 -1.83207,-0.04745 c -1.33906,-0.03468 -2.29555,0.187414 -3.5544,0.825321 -0.94728,0.480022 -1.72232,0.951333 -1.72232,1.047359 0,0.09602 0.6632,-0.166107 1.47377,-0.582516 0.81058,-0.416408 2.41006,-0.866369 3.5544,-0.999912 z m 30.45813,1.411846 c -1.36679,-0.126152 -2.75775,-0.454373 -3.09102,-0.729379 -0.55917,-0.461408 -0.57385,-0.439773 -0.19021,0.280223 0.38018,0.713487 0.64461,0.775886 3.09102,0.729379 l 2.67527,-0.05085 z"
       id="path73" /><path
       style="opacity:1;fill:#c41f13;fill-opacity:1;fill-rule:evenodd;stroke:none;stroke-width:1.45644;stroke-dasharray:none;stroke-opacity:1"
       d="m 181.36091,366.71272 c -8.14395,-0.44406 -16.44889,-2.60105 -28.95532,-7.52038 -6.09377,-2.39694 -17.43334,-7.76656 -22.01992,-10.42707 C 114.18948,339.37046 96.933698,322.56575 84.863796,304.43336 72.33203,285.60713 64.847132,265.32178 62.035903,242.56589 c -0.746316,-6.04116 -1.02473,-20.79247 -0.513922,-27.2293 2.263576,-28.52401 11.958472,-54.43124 28.480926,-76.10828 9.268325,-12.1598 21.393233,-24.0799 31.358443,-30.82874 17.23116,-11.669632 39.34805,-19.485797 60.03557,-21.216724 6.31816,-0.528641 25.09308,-0.207168 30.99994,0.530796 7.13165,0.890981 12.91018,2.161707 26.87471,5.909877 9.21003,2.472032 11.15355,2.716992 21.49976,2.709819 5.7966,-0.004 11.18296,-0.215656 15.08452,-0.59269 3.33766,-0.32254 7.86301,-0.666542 10.05634,-0.764446 l 3.98786,-0.178009 -1.96186,0.836934 c -2.14688,0.915863 -3.6576,1.766581 -8.1848,4.609023 -1.64663,1.03385 -3.11918,1.87973 -3.27232,1.87973 -0.15315,0 -0.27845,-0.31209 -0.27845,-0.69354 0,-0.38145 -0.3121,-1.00564 -0.69355,-1.38708 -0.63563,-0.635636 -1.14955,-0.692837 -6.15517,-0.685086 l -5.46163,0.0085 -1.86226,2.158856 c -4.23617,4.91085 -5.17994,9.62202 -3.33033,16.6245 0.51811,1.96153 1.01491,3.89441 1.10398,4.29529 0.15753,0.70895 0.0119,0.73568 -5.33028,0.97802 -5.77931,0.26216 -8.3037,0.63774 -9.32987,1.38809 -0.55891,0.40869 -0.57235,0.56734 -0.13702,1.6183 0.26545,0.64086 2.36819,3.66568 4.67275,6.72183 2.30457,3.05615 7.31761,9.70065 11.1401,14.76556 9.45981,12.53451 10.88151,15.0657 12.95737,23.06925 1.8329,7.06682 2.21736,18.68733 0.83904,25.36021 -1.6179,7.83278 -6.74289,17.49467 -12.04254,22.70325 -2.94706,2.89642 -10.75285,8.26289 -16.82094,11.56438 -4.16816,2.26779 -4.85777,2.53198 -7.10879,2.72344 -3.82913,0.32568 -20.37594,0.85657 -44.45206,1.42621 -27.66411,0.65453 -42.82222,1.14544 -48.53112,1.57171 -3.78676,0.28276 -4.82028,0.49024 -6.58864,1.3227 -4.11691,1.93804 -8.45746,7.08193 -9.89022,11.72065 -0.88287,2.8584 -1.74332,9.32088 -1.74332,13.0933 v 2.87902 l 2.66146,3.95193 c 1.46381,2.17357 3.54989,5.12229 4.63575,6.55272 5.65295,7.44676 11.68909,12.97487 12.33353,11.29549 0.27631,-0.72005 -0.54914,-2.1281 -5.64331,-9.62637 -2.55087,-3.75472 -5.22013,-8.046 -5.93168,-9.53619 -1.22486,-2.56521 -1.29209,-2.88479 -1.26282,-6.00375 0.0371,-3.95976 1.04712,-7.4263 3.64098,-12.49703 1.55237,-3.03471 3.84369,-5.93738 4.3149,-5.46617 0.10716,0.10717 -0.35811,1.20084 -1.03396,2.43038 -2.23543,4.06688 -3.35893,10.48553 -2.62595,15.00235 0.55118,3.39656 1.97166,6.54269 4.9847,11.04029 5.33689,7.96645 11.2721,13.6417 19.16798,18.32842 5.08157,3.01624 11.20293,6.28159 15.09244,8.05083 l 2.65308,1.20683 8.44357,-3.40514 c 4.64396,-1.87282 11.7732,-4.75715 15.84275,-6.40962 4.06956,-1.65247 7.55954,-2.95103 7.75552,-2.88571 0.41862,0.13954 -2.32836,1.4325 -12.72732,5.99052 -9.53109,4.17763 -24.48346,11.52636 -26.44124,12.99523 -1.78065,1.33598 -1.85694,2.04267 -0.60685,5.62072 0.47681,1.36473 0.86693,2.63724 0.86693,2.82778 0,0.19056 -1.20936,-0.82095 -2.68747,-2.24779 -3.22152,-3.10977 -4.52999,-4.11358 -6.93045,-5.31677 -3.87149,-1.94051 -10.95054,-2.48339 -15.89456,-1.21892 -6.36253,1.62726 -10.08695,5.54232 -14.85872,15.61931 -2.18584,4.61606 -2.56397,6.42079 -1.83159,8.74185 1.12044,3.55089 7.78559,14.21222 10.94535,17.50779 2.1102,2.20089 3.50291,2.634 8.37059,2.60309 5.91217,-0.0376 12.04856,-1.39473 16.82824,-3.72187 3.11715,-1.51768 4.82088,-3.21579 6.27359,-6.25288 1.90593,-3.9846 2.59149,-7.26449 2.81086,-13.44768 l 0.19413,-5.47197 1.52243,2.6978 c 1.72292,3.05308 2.57011,3.9115 3.8603,3.9115 2.27446,0 20.06027,-6.88595 48.61441,-18.82156 30.66743,-12.81896 41.23288,-17.61604 43.04334,-19.54319 0.75575,-0.80446 0.75803,-0.83975 0.18725,-2.89274 -0.31781,-1.14308 -0.57783,-2.16501 -0.57783,-2.27095 0,-0.10594 2.14564,1.95933 4.7681,4.58947 6.46943,6.48842 9.981,8.47566 16.27945,9.2127 4.25891,0.49838 10.06757,-0.0447 13.76971,-1.28751 1.4567,-0.489 2.81536,-0.88909 3.01924,-0.88909 0.20388,0 -0.35163,0.81924 -1.23447,1.82054 -3.38502,3.83924 -5.78876,6.88205 -10.06728,12.74381 -5.67237,7.7714 -6.74304,9.00184 -15.9423,18.32131 -7.66817,7.76838 -13.76049,13.44622 -17.22963,16.05746 -7.2235,5.43713 -24.14589,13.50022 -37.30993,17.77725 -6.29379,2.04486 -9.86038,2.88678 -13.97236,3.29828 -4.61047,0.46139 -27.89603,0.71967 -34.14807,0.37877 z m -56.116,-106.27658 c -0.96801,-2.18695 -1.81047,-3.92582 -1.87214,-3.86415 -0.21602,0.21602 3.19814,7.84043 3.51089,7.84043 0.0667,0 -0.67073,-1.78932 -1.63875,-3.97628 z m -10.99469,-55.14807 c 0,-0.19072 -0.15126,-0.1127 -0.33615,0.17339 -0.18488,0.28608 -0.33615,0.6762 -0.33615,0.86692 0,0.19073 0.15127,0.1127 0.33615,-0.17338 0.18489,-0.28609 0.33615,-0.67621 0.33615,-0.86693 z m 0.69354,-1.73385 c 0,-0.19072 -0.15126,-0.1127 -0.33615,0.17338 -0.18488,0.28609 -0.33614,0.67621 -0.33614,0.86693 0,0.19072 0.15126,0.1127 0.33614,-0.17339 0.18489,-0.28608 0.33615,-0.6762 0.33615,-0.86692 z m 5.55895,-6.30919 c 1.43227,-0.64467 2.5433,-0.72128 13.52405,-0.93249 6.57996,-0.12657 18.59556,-0.37926 26.70132,-0.56154 8.10575,-0.18228 24.25658,-0.4962 35.89073,-0.69761 24.55191,-0.42504 30.17343,-0.72238 32.89268,-1.73978 3.72054,-1.39203 6.81174,-6.12592 6.81226,-10.43233 5.4e-4,-4.55649 -13.1328,-21.10627 -17.6644,-24.79755 -8.19561,-6.67585 -17.83448,-20.23117 -51.34264,-12.36894 -20.27518,4.75729 -35.98556,22.58297 -44.6686,41.55392 -1.52599,3.33403 -4.31619,10.99073 -3.93392,10.79526 0.12543,-0.0641 0.93026,-0.43268 1.78852,-0.81898 z M 252.07675,99.707432 c -1.15828,-0.132513 -2.28783,-0.353337 -2.51012,-0.490719 -0.26519,-0.163898 -0.33315,-0.06474 -0.19765,0.288378 0.1607,0.418765 0.71761,0.527639 2.51012,0.49072 l 2.3036,-0.04745 z m -30.69751,-1.393574 c 1.46314,-0.247494 1.4944,-0.272375 0.38042,-0.30282 -1.13519,-0.03103 -4.16124,1.062691 -4.16124,1.504015 0,0.109584 0.49201,-0.05518 1.09335,-0.36615 0.60134,-0.310967 1.81071,-0.686737 2.68747,-0.835045 z"
       id="path74"
       sodipodi:nodetypes="sssssssssssssscsssssscsssssssssssssssssscssssscssssssscssssssssssssssssscssssssssssssssssssssssssssssssssssssssssssssssscsssssss" /></g></svg>
